<mxfile host="app.diagrams.net" modified="2024-03-23T08:58:31.345Z" agent="Mozilla/5.0 (Windows NT 10.0; Win64; x64) AppleWebKit/537.36 (KHTML, like Gecko) Chrome/121.0.0.0 Safari/537.36 OPR/107.0.0.0" etag="lX5OqjuE56jpNhTkb_kZ" version="24.0.8" type="google">
  <diagram id="piDafpqhtRUU5qUU-vj8" name="Page-1">
    <mxGraphModel grid="1" page="1" gridSize="10" guides="1" tooltips="1" connect="1" arrows="1" fold="1" pageScale="1" pageWidth="827" pageHeight="1169" math="0" shadow="0">
      <root>
        <mxCell id="0" />
        <mxCell id="1" parent="0" />
        <mxCell id="pIqjqkyUgT4Ita8mCVpo-274" value="" style="rounded=0;whiteSpace=wrap;html=1;" vertex="1" parent="1">
          <mxGeometry x="5500" y="593" width="1600" height="877" as="geometry" />
        </mxCell>
        <mxCell id="pIqjqkyUgT4Ita8mCVpo-2" value="" style="ellipse;whiteSpace=wrap;html=1;aspect=fixed;" vertex="1" parent="1">
          <mxGeometry x="-1490" y="280" width="80" height="80" as="geometry" />
        </mxCell>
        <mxCell id="pIqjqkyUgT4Ita8mCVpo-21" value="" style="shape=ext;double=1;rounded=0;whiteSpace=wrap;html=1;" vertex="1" parent="1">
          <mxGeometry x="-1530" y="240" width="1990" height="1280" as="geometry" />
        </mxCell>
        <mxCell id="pIqjqkyUgT4Ita8mCVpo-1" value="" style="rounded=0;whiteSpace=wrap;html=1;" vertex="1" parent="1">
          <mxGeometry x="-1530" y="240" width="1980" height="140" as="geometry" />
        </mxCell>
        <mxCell id="pIqjqkyUgT4Ita8mCVpo-7" value="" style="strokeWidth=1;shadow=0;dashed=0;align=center;html=1;shape=mxgraph.mockup.forms.rrect;rSize=0;strokeColor=#999999;fillColor=#ffffff;fontSize=13;" vertex="1" parent="1">
          <mxGeometry x="-880" y="580" width="740" height="640" as="geometry" />
        </mxCell>
        <mxCell id="pIqjqkyUgT4Ita8mCVpo-8" value="&lt;font style=&quot;font-size: 30px;&quot;&gt;Sign In&lt;/font&gt;" style="strokeWidth=1;shadow=0;dashed=0;align=center;html=1;shape=mxgraph.mockup.forms.anchor;fontSize=12;fontColor=#666666;align=left;resizeWidth=1;spacingLeft=0;" vertex="1" parent="pIqjqkyUgT4Ita8mCVpo-7">
          <mxGeometry width="370.00000000000006" height="20" relative="1" as="geometry">
            <mxPoint x="10" y="10" as="offset" />
          </mxGeometry>
        </mxCell>
        <mxCell id="pIqjqkyUgT4Ita8mCVpo-9" value="" style="shape=line;strokeColor=#ddeeff;strokeWidth=2;html=1;resizeWidth=1;" vertex="1" parent="pIqjqkyUgT4Ita8mCVpo-7">
          <mxGeometry width="666" height="10" relative="1" as="geometry">
            <mxPoint x="10" y="30" as="offset" />
          </mxGeometry>
        </mxCell>
        <mxCell id="pIqjqkyUgT4Ita8mCVpo-10" value="User Name:" style="strokeWidth=1;shadow=0;dashed=0;align=center;html=1;shape=mxgraph.mockup.forms.anchor;fontSize=30;fontColor=#666666;align=left;resizeWidth=1;spacingLeft=0;" vertex="1" parent="pIqjqkyUgT4Ita8mCVpo-7">
          <mxGeometry width="370.00000000000006" height="20" relative="1" as="geometry">
            <mxPoint x="10" y="40" as="offset" />
          </mxGeometry>
        </mxCell>
        <mxCell id="pIqjqkyUgT4Ita8mCVpo-11" value="johndoe" style="strokeWidth=1;shadow=0;dashed=0;align=center;html=1;shape=mxgraph.mockup.forms.rrect;rSize=0;strokeColor=#999999;fontColor=#666666;align=left;spacingLeft=5;resizeWidth=1;" vertex="1" parent="pIqjqkyUgT4Ita8mCVpo-7">
          <mxGeometry width="555" height="25" relative="1" as="geometry">
            <mxPoint x="10" y="60" as="offset" />
          </mxGeometry>
        </mxCell>
        <mxCell id="pIqjqkyUgT4Ita8mCVpo-12" value="Password:" style="strokeWidth=1;shadow=0;dashed=0;align=center;html=1;shape=mxgraph.mockup.forms.anchor;fontSize=30;fontColor=#666666;align=left;resizeWidth=1;spacingLeft=0;" vertex="1" parent="pIqjqkyUgT4Ita8mCVpo-7">
          <mxGeometry width="370.00000000000006" height="20" relative="1" as="geometry">
            <mxPoint x="10" y="95" as="offset" />
          </mxGeometry>
        </mxCell>
        <mxCell id="pIqjqkyUgT4Ita8mCVpo-13" value="********" style="strokeWidth=1;shadow=0;dashed=0;align=center;html=1;shape=mxgraph.mockup.forms.rrect;rSize=0;strokeColor=#999999;fontColor=#666666;align=left;spacingLeft=5;resizeWidth=1;" vertex="1" parent="pIqjqkyUgT4Ita8mCVpo-7">
          <mxGeometry width="555" height="25" relative="1" as="geometry">
            <mxPoint x="10" y="115" as="offset" />
          </mxGeometry>
        </mxCell>
        <mxCell id="pIqjqkyUgT4Ita8mCVpo-14" value="Login" style="strokeWidth=1;shadow=0;dashed=0;align=center;html=1;shape=mxgraph.mockup.forms.rrect;rSize=5;strokeColor=none;fontColor=#ffffff;fillColor=#66bbff;fontSize=16;fontStyle=1;" vertex="1" parent="pIqjqkyUgT4Ita8mCVpo-7">
          <mxGeometry y="1" width="80" height="30" relative="1" as="geometry">
            <mxPoint x="20" y="-127" as="offset" />
          </mxGeometry>
        </mxCell>
        <mxCell id="pIqjqkyUgT4Ita8mCVpo-15" value="Forgot Password?" style="strokeWidth=1;shadow=0;dashed=0;align=center;html=1;shape=mxgraph.mockup.forms.anchor;fontSize=12;fontColor=#9999ff;align=left;spacingLeft=0;fontStyle=4;resizeWidth=1;" vertex="1" parent="pIqjqkyUgT4Ita8mCVpo-7">
          <mxGeometry y="1" width="555" height="20" relative="1" as="geometry">
            <mxPoint x="10" y="-200" as="offset" />
          </mxGeometry>
        </mxCell>
        <mxCell id="pIqjqkyUgT4Ita8mCVpo-17" value="" style="strokeWidth=1;shadow=0;dashed=0;align=center;html=1;shape=mxgraph.mockup.forms.anchor;fontSize=12;fontColor=#666666;align=left;spacingLeft=0;resizeWidth=1;" vertex="1" parent="pIqjqkyUgT4Ita8mCVpo-7">
          <mxGeometry y="1" width="555" height="20" relative="1" as="geometry">
            <mxPoint x="10" y="-70" as="offset" />
          </mxGeometry>
        </mxCell>
        <mxCell id="pIqjqkyUgT4Ita8mCVpo-3" value="Student" style="text;html=1;align=center;verticalAlign=middle;whiteSpace=wrap;rounded=0;fontSize=50;" vertex="1" parent="1">
          <mxGeometry x="-30" y="275" width="190" height="70" as="geometry" />
        </mxCell>
        <mxCell id="pIqjqkyUgT4Ita8mCVpo-4" value="Adviser" style="text;html=1;align=center;verticalAlign=middle;whiteSpace=wrap;rounded=0;fontSize=50;" vertex="1" parent="1">
          <mxGeometry x="200" y="275" width="190" height="70" as="geometry" />
        </mxCell>
        <mxCell id="pIqjqkyUgT4Ita8mCVpo-24" value="" style="ellipse;shape=doubleEllipse;whiteSpace=wrap;html=1;aspect=fixed;" vertex="1" parent="1">
          <mxGeometry x="-1480" y="265" width="90" height="90" as="geometry" />
        </mxCell>
        <mxCell id="pIqjqkyUgT4Ita8mCVpo-25" value="" style="shape=ext;double=1;rounded=0;whiteSpace=wrap;html=1;" vertex="1" parent="1">
          <mxGeometry x="700" y="240" width="1990" height="1280" as="geometry" />
        </mxCell>
        <mxCell id="pIqjqkyUgT4Ita8mCVpo-26" value="" style="shape=ext;double=1;rounded=0;whiteSpace=wrap;html=1;" vertex="1" parent="1">
          <mxGeometry x="700" y="215" width="1990" height="120" as="geometry" />
        </mxCell>
        <mxCell id="pIqjqkyUgT4Ita8mCVpo-27" value="" style="ellipse;shape=doubleEllipse;whiteSpace=wrap;html=1;aspect=fixed;" vertex="1" parent="1">
          <mxGeometry x="747" y="240" width="80" height="80" as="geometry" />
        </mxCell>
        <mxCell id="pIqjqkyUgT4Ita8mCVpo-28" value="" style="rounded=1;whiteSpace=wrap;html=1;" vertex="1" parent="1">
          <mxGeometry x="2210" y="245" width="70" height="45" as="geometry" />
        </mxCell>
        <mxCell id="pIqjqkyUgT4Ita8mCVpo-29" value="" style="rounded=1;whiteSpace=wrap;html=1;" vertex="1" parent="1">
          <mxGeometry x="2370" y="245" width="60" height="45" as="geometry" />
        </mxCell>
        <mxCell id="pIqjqkyUgT4Ita8mCVpo-37" value="" style="whiteSpace=wrap;html=1;aspect=fixed;verticalLabelPosition=bottom;shadow=0;dashed=0;verticalAlign=top;strokeWidth=1;shape=mxgraph.mockup.containers.userMale;strokeColor=#666666;strokeColor2=#008cff;" vertex="1" parent="1">
          <mxGeometry x="2570" y="240" width="80" height="80" as="geometry" />
        </mxCell>
        <mxCell id="pIqjqkyUgT4Ita8mCVpo-41" value="Profile" style="html=1;shadow=0;dashed=0;shape=mxgraph.bootstrap.rrect;rSize=5;strokeColor=none;strokeWidth=1;fillColor=#1CA5B8;fontColor=#ffffff;whiteSpace=wrap;align=left;verticalAlign=middle;fontStyle=0;fontSize=14;spacingLeft=10;" vertex="1" parent="1">
          <mxGeometry x="2700" y="275" width="60" height="40" as="geometry" />
        </mxCell>
        <mxCell id="pIqjqkyUgT4Ita8mCVpo-42" value="" style="shape=triangle;direction=south;fillColor=#ffffff;strokeColor=none;perimeter=none;" vertex="1" parent="pIqjqkyUgT4Ita8mCVpo-41">
          <mxGeometry x="1" y="0.5" width="10" height="5" relative="1" as="geometry">
            <mxPoint x="-17" y="-2.5" as="offset" />
          </mxGeometry>
        </mxCell>
        <mxCell id="pIqjqkyUgT4Ita8mCVpo-43" value="" style="html=1;shadow=0;dashed=0;shape=mxgraph.bootstrap.rrect;rSize=5;fillColor=#ffffff;strokeColor=#999999;" vertex="1" parent="1">
          <mxGeometry x="2700" y="315" width="170" height="115" as="geometry" />
        </mxCell>
        <mxCell id="pIqjqkyUgT4Ita8mCVpo-44" value="Profile" style="fillColor=none;strokeColor=none;align=left;spacing=20;fontSize=14;" vertex="1" parent="pIqjqkyUgT4Ita8mCVpo-43">
          <mxGeometry width="170" height="30" relative="1" as="geometry">
            <mxPoint y="10" as="offset" />
          </mxGeometry>
        </mxCell>
        <mxCell id="pIqjqkyUgT4Ita8mCVpo-50" value="Logout" style="fillColor=none;strokeColor=none;align=left;spacing=20;fontSize=14;" vertex="1" parent="pIqjqkyUgT4Ita8mCVpo-43">
          <mxGeometry y="26.833333333333332" width="170" height="23" as="geometry" />
        </mxCell>
        <mxCell id="pIqjqkyUgT4Ita8mCVpo-52" value="" style="rounded=0;whiteSpace=wrap;html=1;" vertex="1" parent="1">
          <mxGeometry x="700" y="335" width="270" height="1185" as="geometry" />
        </mxCell>
        <mxCell id="pIqjqkyUgT4Ita8mCVpo-53" value="&#xa;&lt;span style=&quot;color: rgb(0, 0, 0); font-family: Helvetica; font-size: 25px; font-style: normal; font-variant-ligatures: normal; font-variant-caps: normal; font-weight: 400; letter-spacing: normal; orphans: 2; text-align: center; text-indent: 0px; text-transform: none; widows: 2; word-spacing: 0px; -webkit-text-stroke-width: 0px; white-space: normal; background-color: rgb(251, 251, 251); text-decoration-thickness: initial; text-decoration-style: initial; text-decoration-color: initial; display: inline !important; float: none;&quot;&gt;Profile&lt;/span&gt;&#xa;&#xa;" style="text;html=1;align=center;verticalAlign=middle;whiteSpace=wrap;rounded=0;" vertex="1" parent="1">
          <mxGeometry x="755" y="410" width="160" height="50" as="geometry" />
        </mxCell>
        <mxCell id="pIqjqkyUgT4Ita8mCVpo-55" value="&lt;font style=&quot;font-size: 25px;&quot;&gt;Internship&lt;/font&gt;" style="text;html=1;align=center;verticalAlign=middle;whiteSpace=wrap;rounded=0;" vertex="1" parent="1">
          <mxGeometry x="770" y="510" width="130" height="50" as="geometry" />
        </mxCell>
        <mxCell id="pIqjqkyUgT4Ita8mCVpo-57" value="&lt;font style=&quot;font-size: 25px;&quot;&gt;My Application&lt;/font&gt;" style="text;html=1;align=center;verticalAlign=middle;whiteSpace=wrap;rounded=0;" vertex="1" parent="1">
          <mxGeometry x="755" y="610" width="175" height="50" as="geometry" />
        </mxCell>
        <mxCell id="pIqjqkyUgT4Ita8mCVpo-58" value="" style="html=1;shadow=0;dashed=0;shape=mxgraph.bootstrap.rrect;rSize=5;fillColor=#E9ECEF;strokeColor=none;" vertex="1" parent="1">
          <mxGeometry x="1030" y="1160" width="1460" height="190" as="geometry" />
        </mxCell>
        <mxCell id="pIqjqkyUgT4Ita8mCVpo-59" value="" style="html=1;shadow=0;dashed=0;shape=mxgraph.bootstrap.leftButton;rSize=5;fillColor=#33A64C;strokeColor=none;resizeHeight=1;" vertex="1" parent="pIqjqkyUgT4Ita8mCVpo-58">
          <mxGeometry width="250" height="190" relative="1" as="geometry" />
        </mxCell>
        <mxCell id="pIqjqkyUgT4Ita8mCVpo-60" value="" style="shape=ext;double=1;rounded=0;whiteSpace=wrap;html=1;" vertex="1" parent="1">
          <mxGeometry x="2920" y="252.5" width="1990" height="1280" as="geometry" />
        </mxCell>
        <mxCell id="pIqjqkyUgT4Ita8mCVpo-61" value="" style="shape=ext;double=1;rounded=0;whiteSpace=wrap;html=1;" vertex="1" parent="1">
          <mxGeometry x="2920" y="227.5" width="1990" height="120" as="geometry" />
        </mxCell>
        <mxCell id="pIqjqkyUgT4Ita8mCVpo-62" value="" style="ellipse;shape=doubleEllipse;whiteSpace=wrap;html=1;aspect=fixed;" vertex="1" parent="1">
          <mxGeometry x="2967" y="252.5" width="80" height="80" as="geometry" />
        </mxCell>
        <mxCell id="pIqjqkyUgT4Ita8mCVpo-63" value="" style="rounded=1;whiteSpace=wrap;html=1;" vertex="1" parent="1">
          <mxGeometry x="4430" y="257.5" width="70" height="45" as="geometry" />
        </mxCell>
        <mxCell id="pIqjqkyUgT4Ita8mCVpo-64" value="" style="rounded=1;whiteSpace=wrap;html=1;" vertex="1" parent="1">
          <mxGeometry x="4590" y="257.5" width="60" height="45" as="geometry" />
        </mxCell>
        <mxCell id="pIqjqkyUgT4Ita8mCVpo-66" value="" style="shape=triangle;direction=south;fillColor=#ffffff;strokeColor=none;perimeter=none;" vertex="1" parent="1">
          <mxGeometry x="4963" y="305" width="10" height="5" as="geometry" />
        </mxCell>
        <mxCell id="pIqjqkyUgT4Ita8mCVpo-67" value="" style="rounded=0;whiteSpace=wrap;html=1;" vertex="1" parent="1">
          <mxGeometry x="2920" y="347.5" width="270" height="1185" as="geometry" />
        </mxCell>
        <mxCell id="pIqjqkyUgT4Ita8mCVpo-68" value="&#xa;&lt;span style=&quot;color: rgb(0, 0, 0); font-family: Helvetica; font-size: 25px; font-style: normal; font-variant-ligatures: normal; font-variant-caps: normal; font-weight: 400; letter-spacing: normal; orphans: 2; text-align: center; text-indent: 0px; text-transform: none; widows: 2; word-spacing: 0px; -webkit-text-stroke-width: 0px; white-space: normal; background-color: rgb(251, 251, 251); text-decoration-thickness: initial; text-decoration-style: initial; text-decoration-color: initial; display: inline !important; float: none;&quot;&gt;Profile&lt;/span&gt;&#xa;&#xa;" style="text;html=1;align=center;verticalAlign=middle;whiteSpace=wrap;rounded=0;" vertex="1" parent="1">
          <mxGeometry x="2975" y="422.5" width="160" height="50" as="geometry" />
        </mxCell>
        <mxCell id="pIqjqkyUgT4Ita8mCVpo-74" value="" style="rounded=0;whiteSpace=wrap;html=1;" vertex="1" parent="1">
          <mxGeometry x="3250" y="410" width="1570" height="1072.5" as="geometry" />
        </mxCell>
        <mxCell id="pIqjqkyUgT4Ita8mCVpo-75" value="" style="verticalLabelPosition=bottom;shadow=0;dashed=0;align=center;html=1;verticalAlign=top;strokeWidth=1;shape=mxgraph.mockup.containers.userMale;strokeColor=#666666;strokeColor2=#008cff;" vertex="1" parent="1">
          <mxGeometry x="4800" y="246.25" width="80" height="82.5" as="geometry" />
        </mxCell>
        <mxCell id="pIqjqkyUgT4Ita8mCVpo-76" value="" style="verticalLabelPosition=bottom;shadow=0;dashed=0;align=center;html=1;verticalAlign=top;strokeWidth=1;shape=mxgraph.mockup.containers.userMale;strokeColor=#666666;strokeColor2=#008cff;" vertex="1" parent="1">
          <mxGeometry x="3475" y="472.5" width="240" height="206" as="geometry" />
        </mxCell>
        <mxCell id="pIqjqkyUgT4Ita8mCVpo-85" value="" style="shape=ext;double=1;rounded=0;whiteSpace=wrap;html=1;" vertex="1" parent="1">
          <mxGeometry x="3930" y="722.5" width="830" height="507.5" as="geometry" />
        </mxCell>
        <mxCell id="pIqjqkyUgT4Ita8mCVpo-84" value="&lt;font style=&quot;font-size: 25px;&quot;&gt;Documents&lt;/font&gt;" style="text;strokeColor=none;fillColor=none;align=left;verticalAlign=top;spacingLeft=4;spacingRight=4;overflow=hidden;rotatable=0;points=[[0,0.5],[1,0.5]];portConstraint=eastwest;whiteSpace=wrap;html=1;" vertex="1" parent="1">
          <mxGeometry x="3940" y="729" width="140" height="51" as="geometry" />
        </mxCell>
        <mxCell id="pIqjqkyUgT4Ita8mCVpo-86" value="" style="shape=ext;double=1;rounded=0;whiteSpace=wrap;html=1;" vertex="1" parent="1">
          <mxGeometry x="4020" y="780" width="700" height="420" as="geometry" />
        </mxCell>
        <mxCell id="pIqjqkyUgT4Ita8mCVpo-87" value="&lt;font style=&quot;font-size: 25px;&quot;&gt;ADD&lt;/font&gt;" style="text;strokeColor=none;fillColor=none;align=left;verticalAlign=top;spacingLeft=4;spacingRight=4;overflow=hidden;rotatable=0;points=[[0,0.5],[1,0.5]];portConstraint=eastwest;whiteSpace=wrap;html=1;" vertex="1" parent="1">
          <mxGeometry x="4350" y="800" width="80" height="51" as="geometry" />
        </mxCell>
        <mxCell id="pIqjqkyUgT4Ita8mCVpo-88" value="&lt;font style=&quot;font-size: 25px;&quot;&gt;Create Folder&lt;/font&gt;" style="text;strokeColor=none;fillColor=none;align=left;verticalAlign=top;spacingLeft=4;spacingRight=4;overflow=hidden;rotatable=0;points=[[0,0.5],[1,0.5]];portConstraint=eastwest;whiteSpace=wrap;html=1;" vertex="1" parent="1">
          <mxGeometry x="4420" y="800" width="170" height="51" as="geometry" />
        </mxCell>
        <mxCell id="pIqjqkyUgT4Ita8mCVpo-89" value="&lt;font style=&quot;font-size: 25px;&quot;&gt;Download&lt;/font&gt;" style="text;strokeColor=none;fillColor=none;align=left;verticalAlign=top;spacingLeft=4;spacingRight=4;overflow=hidden;rotatable=0;points=[[0,0.5],[1,0.5]];portConstraint=eastwest;whiteSpace=wrap;html=1;" vertex="1" parent="1">
          <mxGeometry x="4590" y="800" width="140" height="51" as="geometry" />
        </mxCell>
        <mxCell id="pIqjqkyUgT4Ita8mCVpo-90" value="" style="outlineConnect=0;dashed=0;verticalLabelPosition=bottom;verticalAlign=top;align=center;html=1;shape=mxgraph.aws3.documents;fillColor=#759C3E;gradientColor=none;" vertex="1" parent="1">
          <mxGeometry x="4305" y="940" width="130" height="130" as="geometry" />
        </mxCell>
        <mxCell id="pIqjqkyUgT4Ita8mCVpo-91" value="" style="shape=ext;double=1;rounded=0;whiteSpace=wrap;html=1;" vertex="1" parent="1">
          <mxGeometry x="5190" y="240" width="1990" height="1290" as="geometry" />
        </mxCell>
        <mxCell id="pIqjqkyUgT4Ita8mCVpo-92" value="" style="shape=ext;double=1;rounded=0;whiteSpace=wrap;html=1;" vertex="1" parent="1">
          <mxGeometry x="5190" y="227.5" width="1990" height="120" as="geometry" />
        </mxCell>
        <mxCell id="pIqjqkyUgT4Ita8mCVpo-93" value="" style="ellipse;shape=doubleEllipse;whiteSpace=wrap;html=1;aspect=fixed;" vertex="1" parent="1">
          <mxGeometry x="5247" y="265" width="80" height="80" as="geometry" />
        </mxCell>
        <mxCell id="pIqjqkyUgT4Ita8mCVpo-94" value="" style="rounded=1;whiteSpace=wrap;html=1;" vertex="1" parent="1">
          <mxGeometry x="6710" y="270" width="70" height="45" as="geometry" />
        </mxCell>
        <mxCell id="pIqjqkyUgT4Ita8mCVpo-95" value="" style="rounded=1;whiteSpace=wrap;html=1;" vertex="1" parent="1">
          <mxGeometry x="6870" y="270" width="60" height="45" as="geometry" />
        </mxCell>
        <mxCell id="pIqjqkyUgT4Ita8mCVpo-96" value="" style="whiteSpace=wrap;html=1;aspect=fixed;verticalLabelPosition=bottom;shadow=0;dashed=0;verticalAlign=top;strokeWidth=1;shape=mxgraph.mockup.containers.userMale;strokeColor=#666666;strokeColor2=#008cff;" vertex="1" parent="1">
          <mxGeometry x="7070" y="248.75" width="80" height="80" as="geometry" />
        </mxCell>
        <mxCell id="pIqjqkyUgT4Ita8mCVpo-97" value="" style="shape=triangle;direction=south;fillColor=#ffffff;strokeColor=none;perimeter=none;" vertex="1" parent="1">
          <mxGeometry x="7243" y="317.5" width="10" height="5" as="geometry" />
        </mxCell>
        <mxCell id="pIqjqkyUgT4Ita8mCVpo-98" value="" style="rounded=0;whiteSpace=wrap;html=1;" vertex="1" parent="1">
          <mxGeometry x="5190" y="345" width="270" height="1185" as="geometry" />
        </mxCell>
        <mxCell id="pIqjqkyUgT4Ita8mCVpo-99" value="&#xa;&lt;span style=&quot;color: rgb(0, 0, 0); font-family: Helvetica; font-size: 25px; font-style: normal; font-variant-ligatures: normal; font-variant-caps: normal; font-weight: 400; letter-spacing: normal; orphans: 2; text-align: center; text-indent: 0px; text-transform: none; widows: 2; word-spacing: 0px; -webkit-text-stroke-width: 0px; white-space: normal; background-color: rgb(251, 251, 251); text-decoration-thickness: initial; text-decoration-style: initial; text-decoration-color: initial; display: inline !important; float: none;&quot;&gt;Profile&lt;/span&gt;&#xa;&#xa;" style="text;html=1;align=center;verticalAlign=middle;whiteSpace=wrap;rounded=0;" vertex="1" parent="1">
          <mxGeometry x="5255" y="435" width="160" height="50" as="geometry" />
        </mxCell>
        <mxCell id="pIqjqkyUgT4Ita8mCVpo-100" value="&lt;font style=&quot;font-size: 25px;&quot;&gt;Internship&lt;/font&gt;" style="text;html=1;align=center;verticalAlign=middle;whiteSpace=wrap;rounded=0;" vertex="1" parent="1">
          <mxGeometry x="5270" y="535" width="130" height="50" as="geometry" />
        </mxCell>
        <mxCell id="pIqjqkyUgT4Ita8mCVpo-102" value="&lt;font style=&quot;font-size: 25px;&quot;&gt;My Application&lt;/font&gt;" style="text;html=1;align=center;verticalAlign=middle;whiteSpace=wrap;rounded=0;" vertex="1" parent="1">
          <mxGeometry x="5255" y="640" width="165" height="50" as="geometry" />
        </mxCell>
        <mxCell id="pIqjqkyUgT4Ita8mCVpo-105" value="Search" style="strokeWidth=1;shadow=0;dashed=0;align=center;html=1;shape=mxgraph.mockup.forms.searchBox;strokeColor=#999999;mainText=;strokeColor2=#008cff;fontColor=#666666;fontSize=17;align=left;spacingLeft=3;whiteSpace=wrap;" vertex="1" parent="1">
          <mxGeometry x="5500" y="420" width="250" height="55" as="geometry" />
        </mxCell>
        <mxCell id="pIqjqkyUgT4Ita8mCVpo-119" value="" style="html=1;shadow=0;dashed=0;shape=mxgraph.bootstrap.rrect;rSize=5;strokeColor=#DEE2E6;html=1;whiteSpace=wrap;fillColor=#ffffff;fontColor=#0085FC;" vertex="1" parent="1">
          <mxGeometry x="6260" y="1480" width="150" height="40" as="geometry" />
        </mxCell>
        <mxCell id="pIqjqkyUgT4Ita8mCVpo-120" value="&lt;&lt;" style="strokeColor=inherit;fillColor=inherit;gradientColor=inherit;fontColor=inherit;html=1;shadow=0;dashed=0;shape=mxgraph.bootstrap.leftButton;rSize=5;perimeter=none;whiteSpace=wrap;resizeHeight=1;fontSize=14;" vertex="1" parent="pIqjqkyUgT4Ita8mCVpo-119">
          <mxGeometry width="30" height="40" relative="1" as="geometry" />
        </mxCell>
        <mxCell id="pIqjqkyUgT4Ita8mCVpo-121" value="1" style="strokeColor=inherit;fillColor=inherit;gradientColor=inherit;fontColor=inherit;html=1;shadow=0;dashed=0;perimeter=none;whiteSpace=wrap;resizeHeight=1;fontSize=14;" vertex="1" parent="pIqjqkyUgT4Ita8mCVpo-119">
          <mxGeometry width="30" height="40" relative="1" as="geometry">
            <mxPoint x="30" as="offset" />
          </mxGeometry>
        </mxCell>
        <mxCell id="pIqjqkyUgT4Ita8mCVpo-122" value="2" style="strokeColor=inherit;fillColor=inherit;gradientColor=inherit;fontColor=inherit;html=1;shadow=0;dashed=0;perimeter=none;whiteSpace=wrap;resizeHeight=1;fontSize=14;" vertex="1" parent="pIqjqkyUgT4Ita8mCVpo-119">
          <mxGeometry width="30" height="40" relative="1" as="geometry">
            <mxPoint x="60" as="offset" />
          </mxGeometry>
        </mxCell>
        <mxCell id="pIqjqkyUgT4Ita8mCVpo-123" value="3" style="strokeColor=inherit;fillColor=inherit;gradientColor=inherit;fontColor=inherit;html=1;shadow=0;dashed=0;perimeter=none;whiteSpace=wrap;resizeHeight=1;fontSize=14;" vertex="1" parent="pIqjqkyUgT4Ita8mCVpo-119">
          <mxGeometry width="30" height="40" relative="1" as="geometry">
            <mxPoint x="90" as="offset" />
          </mxGeometry>
        </mxCell>
        <mxCell id="pIqjqkyUgT4Ita8mCVpo-124" value="&gt;&gt;" style="strokeColor=inherit;fillColor=inherit;gradientColor=inherit;fontColor=inherit;html=1;shadow=0;dashed=0;shape=mxgraph.bootstrap.rightButton;rSize=5;perimeter=none;whiteSpace=wrap;resizeHeight=1;fontSize=14;" vertex="1" parent="pIqjqkyUgT4Ita8mCVpo-119">
          <mxGeometry x="1" width="30" height="40" relative="1" as="geometry">
            <mxPoint x="-30" as="offset" />
          </mxGeometry>
        </mxCell>
        <mxCell id="pIqjqkyUgT4Ita8mCVpo-183" value="" style="shape=triangle;direction=south;fillColor=#ffffff;strokeColor=none;perimeter=none;" vertex="1" parent="1">
          <mxGeometry x="2763" y="312.5" width="10" height="5" as="geometry" />
        </mxCell>
        <mxCell id="pIqjqkyUgT4Ita8mCVpo-191" value="&lt;font style=&quot;font-size: 25px;&quot;&gt;Internship&lt;/font&gt;" style="text;html=1;align=center;verticalAlign=middle;whiteSpace=wrap;rounded=0;" vertex="1" parent="1">
          <mxGeometry x="6240" y="422.5" width="160" height="50" as="geometry" />
        </mxCell>
        <mxCell id="pIqjqkyUgT4Ita8mCVpo-202" value="&lt;font style=&quot;font-size: 25px;&quot;&gt;View&lt;/font&gt;" style="strokeWidth=1;shadow=0;dashed=0;align=center;html=1;shape=mxgraph.mockup.buttons.button;strokeColor=#666666;fontColor=#ffffff;mainText=;buttonStyle=round;fontSize=17;fontStyle=1;fillColor=#008cff;whiteSpace=wrap;" vertex="1" parent="1">
          <mxGeometry x="6990" y="632.5" width="150" height="50" as="geometry" />
        </mxCell>
        <mxCell id="pIqjqkyUgT4Ita8mCVpo-219" value="&lt;font style=&quot;font-size: 25px;&quot;&gt;Name&lt;/font&gt;" style="rounded=0;whiteSpace=wrap;html=1;" vertex="1" parent="1">
          <mxGeometry x="3380" y="726.5" width="430" height="60" as="geometry" />
        </mxCell>
        <mxCell id="pIqjqkyUgT4Ita8mCVpo-220" value="&lt;font style=&quot;font-size: 25px;&quot;&gt;Address&lt;/font&gt;" style="rounded=0;whiteSpace=wrap;html=1;" vertex="1" parent="1">
          <mxGeometry x="3380" y="820" width="430" height="60" as="geometry" />
        </mxCell>
        <mxCell id="pIqjqkyUgT4Ita8mCVpo-221" value="&lt;font style=&quot;font-size: 25px;&quot;&gt;Contact Number&lt;/font&gt;" style="rounded=0;whiteSpace=wrap;html=1;" vertex="1" parent="1">
          <mxGeometry x="3380" y="922.5" width="430" height="60" as="geometry" />
        </mxCell>
        <mxCell id="pIqjqkyUgT4Ita8mCVpo-222" value="&lt;font style=&quot;font-size: 25px;&quot;&gt;Email&lt;/font&gt;" style="rounded=0;whiteSpace=wrap;html=1;" vertex="1" parent="1">
          <mxGeometry x="3380" y="1020" width="430" height="60" as="geometry" />
        </mxCell>
        <mxCell id="pIqjqkyUgT4Ita8mCVpo-223" value="&lt;font style=&quot;font-size: 25px;&quot;&gt;Course&lt;/font&gt;" style="rounded=0;whiteSpace=wrap;html=1;" vertex="1" parent="1">
          <mxGeometry x="3380" y="1120" width="430" height="60" as="geometry" />
        </mxCell>
        <mxCell id="pIqjqkyUgT4Ita8mCVpo-224" value="SAVE" style="strokeWidth=1;shadow=0;dashed=0;align=center;html=1;shape=mxgraph.mockup.buttons.button;strokeColor=#666666;fontColor=#ffffff;mainText=;buttonStyle=round;fontSize=17;fontStyle=1;fillColor=#008cff;whiteSpace=wrap;" vertex="1" parent="1">
          <mxGeometry x="3660" y="1230" width="150" height="50" as="geometry" />
        </mxCell>
        <mxCell id="pIqjqkyUgT4Ita8mCVpo-231" value="" style="rounded=0;whiteSpace=wrap;html=1;" vertex="1" parent="1">
          <mxGeometry x="7220" y="540" width="490" height="730" as="geometry" />
        </mxCell>
        <mxCell id="pIqjqkyUgT4Ita8mCVpo-233" value="" style="ellipse;whiteSpace=wrap;html=1;aspect=fixed;" vertex="1" parent="1">
          <mxGeometry x="7253" y="575" width="120" height="120" as="geometry" />
        </mxCell>
        <mxCell id="pIqjqkyUgT4Ita8mCVpo-235" value="&lt;div&gt;&lt;font style=&quot;font-size: 30px;&quot;&gt;Title&lt;/font&gt;&lt;/div&gt;" style="text;html=1;align=center;verticalAlign=middle;whiteSpace=wrap;rounded=0;" vertex="1" parent="1">
          <mxGeometry x="7214.5" y="750" width="197" height="50" as="geometry" />
        </mxCell>
        <mxCell id="pIqjqkyUgT4Ita8mCVpo-237" value="&lt;div&gt;&lt;font style=&quot;font-size: 30px;&quot;&gt;Description&lt;/font&gt;&lt;/div&gt;" style="text;html=1;align=center;verticalAlign=middle;whiteSpace=wrap;rounded=0;" vertex="1" parent="1">
          <mxGeometry x="7243" y="820" width="197" height="50" as="geometry" />
        </mxCell>
        <mxCell id="pIqjqkyUgT4Ita8mCVpo-240" value="" style="shape=link;html=1;rounded=0;entryX=1;entryY=0.25;entryDx=0;entryDy=0;" edge="1" parent="1" target="pIqjqkyUgT4Ita8mCVpo-231">
          <mxGeometry width="100" relative="1" as="geometry">
            <mxPoint x="7220" y="720" as="sourcePoint" />
            <mxPoint x="7320" y="720" as="targetPoint" />
          </mxGeometry>
        </mxCell>
        <mxCell id="pIqjqkyUgT4Ita8mCVpo-241" value="&lt;font style=&quot;font-size: 25px;&quot;&gt;Apply&lt;/font&gt;" style="strokeWidth=1;shadow=0;dashed=0;align=center;html=1;shape=mxgraph.mockup.buttons.button;strokeColor=#666666;fontColor=#ffffff;mainText=;buttonStyle=round;fontSize=17;fontStyle=1;fillColor=#008cff;whiteSpace=wrap;" vertex="1" parent="1">
          <mxGeometry x="7540" y="1190" width="150" height="50" as="geometry" />
        </mxCell>
        <mxCell id="pIqjqkyUgT4Ita8mCVpo-242" value="&lt;font style=&quot;font-size: 25px;&quot;&gt;Internship&lt;/font&gt;" style="text;html=1;align=center;verticalAlign=middle;whiteSpace=wrap;rounded=0;" vertex="1" parent="1">
          <mxGeometry x="2975" y="520" width="160" height="50" as="geometry" />
        </mxCell>
        <mxCell id="pIqjqkyUgT4Ita8mCVpo-243" value="&lt;font style=&quot;font-size: 25px;&quot;&gt;My Application&lt;/font&gt;" style="text;html=1;align=center;verticalAlign=middle;whiteSpace=wrap;rounded=0;" vertex="1" parent="1">
          <mxGeometry x="2962.5" y="620" width="185" height="50" as="geometry" />
        </mxCell>
        <mxCell id="pIqjqkyUgT4Ita8mCVpo-244" value="" style="shape=ext;double=1;rounded=0;whiteSpace=wrap;html=1;" vertex="1" parent="1">
          <mxGeometry x="7770" y="265" width="1990" height="1280" as="geometry" />
        </mxCell>
        <mxCell id="pIqjqkyUgT4Ita8mCVpo-245" value="" style="shape=ext;double=1;rounded=0;whiteSpace=wrap;html=1;" vertex="1" parent="1">
          <mxGeometry x="7770" y="240" width="1990" height="120" as="geometry" />
        </mxCell>
        <mxCell id="pIqjqkyUgT4Ita8mCVpo-246" value="" style="ellipse;shape=doubleEllipse;whiteSpace=wrap;html=1;aspect=fixed;" vertex="1" parent="1">
          <mxGeometry x="7817" y="265" width="80" height="80" as="geometry" />
        </mxCell>
        <mxCell id="pIqjqkyUgT4Ita8mCVpo-247" value="" style="rounded=1;whiteSpace=wrap;html=1;" vertex="1" parent="1">
          <mxGeometry x="9280" y="270" width="70" height="45" as="geometry" />
        </mxCell>
        <mxCell id="pIqjqkyUgT4Ita8mCVpo-248" value="" style="rounded=1;whiteSpace=wrap;html=1;" vertex="1" parent="1">
          <mxGeometry x="9440" y="270" width="60" height="45" as="geometry" />
        </mxCell>
        <mxCell id="pIqjqkyUgT4Ita8mCVpo-249" value="" style="rounded=0;whiteSpace=wrap;html=1;" vertex="1" parent="1">
          <mxGeometry x="7770" y="360" width="270" height="1185" as="geometry" />
        </mxCell>
        <mxCell id="pIqjqkyUgT4Ita8mCVpo-250" value="&#xa;&lt;span style=&quot;color: rgb(0, 0, 0); font-family: Helvetica; font-size: 25px; font-style: normal; font-variant-ligatures: normal; font-variant-caps: normal; font-weight: 400; letter-spacing: normal; orphans: 2; text-align: center; text-indent: 0px; text-transform: none; widows: 2; word-spacing: 0px; -webkit-text-stroke-width: 0px; white-space: normal; background-color: rgb(251, 251, 251); text-decoration-thickness: initial; text-decoration-style: initial; text-decoration-color: initial; display: inline !important; float: none;&quot;&gt;Profile&lt;/span&gt;&#xa;&#xa;" style="text;html=1;align=center;verticalAlign=middle;whiteSpace=wrap;rounded=0;" vertex="1" parent="1">
          <mxGeometry x="7825" y="435" width="160" height="50" as="geometry" />
        </mxCell>
        <mxCell id="pIqjqkyUgT4Ita8mCVpo-251" value="" style="rounded=0;whiteSpace=wrap;html=1;" vertex="1" parent="1">
          <mxGeometry x="8100" y="422.5" width="1570" height="1072.5" as="geometry" />
        </mxCell>
        <mxCell id="pIqjqkyUgT4Ita8mCVpo-252" value="" style="verticalLabelPosition=bottom;shadow=0;dashed=0;align=center;html=1;verticalAlign=top;strokeWidth=1;shape=mxgraph.mockup.containers.userMale;strokeColor=#666666;strokeColor2=#008cff;" vertex="1" parent="1">
          <mxGeometry x="9650" y="258.75" width="80" height="82.5" as="geometry" />
        </mxCell>
        <mxCell id="pIqjqkyUgT4Ita8mCVpo-267" value="&lt;font style=&quot;font-size: 25px;&quot;&gt;Internship&lt;/font&gt;" style="text;html=1;align=center;verticalAlign=middle;whiteSpace=wrap;rounded=0;" vertex="1" parent="1">
          <mxGeometry x="7825" y="532.5" width="160" height="50" as="geometry" />
        </mxCell>
        <mxCell id="pIqjqkyUgT4Ita8mCVpo-268" value="&lt;font style=&quot;font-size: 25px;&quot;&gt;My Application&lt;/font&gt;" style="text;html=1;align=center;verticalAlign=middle;whiteSpace=wrap;rounded=0;" vertex="1" parent="1">
          <mxGeometry x="7812.5" y="632.5" width="185" height="50" as="geometry" />
        </mxCell>
        <mxCell id="pIqjqkyUgT4Ita8mCVpo-270" value="&lt;font style=&quot;font-size: 25px;&quot;&gt;List of Internship Applied&lt;/font&gt;" style="shape=ext;double=1;rounded=0;whiteSpace=wrap;html=1;" vertex="1" parent="1">
          <mxGeometry x="8130" y="452.5" width="1500" height="80" as="geometry" />
        </mxCell>
        <mxCell id="pIqjqkyUgT4Ita8mCVpo-271" value="" style="shape=ext;double=1;rounded=0;whiteSpace=wrap;html=1;" vertex="1" parent="1">
          <mxGeometry x="8130" y="610" width="1500" height="880" as="geometry" />
        </mxCell>
        <mxCell id="pIqjqkyUgT4Ita8mCVpo-273" value="&lt;font style=&quot;font-size: 25px;&quot;&gt;Pending/accepted/Rejected&lt;/font&gt;" style="rounded=0;whiteSpace=wrap;html=1;" vertex="1" parent="1">
          <mxGeometry x="9219" y="610" width="411" height="60" as="geometry" />
        </mxCell>
        <mxCell id="pIqjqkyUgT4Ita8mCVpo-276" value="&lt;font style=&quot;font-size: 25px;&quot;&gt;Director&lt;/font&gt;&lt;div style=&quot;font-size: 25px;&quot;&gt;&lt;br&gt;&lt;/div&gt;" style="text;html=1;align=center;verticalAlign=middle;whiteSpace=wrap;rounded=0;" vertex="1" parent="1">
          <mxGeometry x="6520" y="650" width="160" height="50" as="geometry" />
        </mxCell>
        <mxCell id="pIqjqkyUgT4Ita8mCVpo-277" value="&lt;font style=&quot;font-size: 25px;&quot;&gt;Email&lt;/font&gt;" style="text;html=1;align=center;verticalAlign=middle;whiteSpace=wrap;rounded=0;" vertex="1" parent="1">
          <mxGeometry x="6310" y="632.5" width="160" height="50" as="geometry" />
        </mxCell>
        <mxCell id="pIqjqkyUgT4Ita8mCVpo-278" value="&lt;font style=&quot;font-size: 25px;&quot;&gt;Contact Number&lt;/font&gt;" style="text;html=1;align=center;verticalAlign=middle;whiteSpace=wrap;rounded=0;" vertex="1" parent="1">
          <mxGeometry x="6050" y="632.5" width="200" height="50" as="geometry" />
        </mxCell>
        <mxCell id="pIqjqkyUgT4Ita8mCVpo-279" value="&lt;font style=&quot;font-size: 25px;&quot;&gt;Address&lt;/font&gt;" style="text;html=1;align=center;verticalAlign=middle;whiteSpace=wrap;rounded=0;" vertex="1" parent="1">
          <mxGeometry x="5840" y="632.5" width="160" height="50" as="geometry" />
        </mxCell>
        <mxCell id="pIqjqkyUgT4Ita8mCVpo-280" value="&lt;font style=&quot;font-size: 25px;&quot;&gt;Company Name&lt;/font&gt;" style="text;html=1;align=center;verticalAlign=middle;whiteSpace=wrap;rounded=0;" vertex="1" parent="1">
          <mxGeometry x="5560" y="632.5" width="200" height="50" as="geometry" />
        </mxCell>
        <mxCell id="pIqjqkyUgT4Ita8mCVpo-286" value="" style="rounded=0;whiteSpace=wrap;html=1;" vertex="1" parent="1">
          <mxGeometry x="1991" y="380" width="490" height="710" as="geometry" />
        </mxCell>
        <mxCell id="pIqjqkyUgT4Ita8mCVpo-287" value="&lt;font style=&quot;font-size: 25px;&quot;&gt;Time Duration of Duty&lt;/font&gt;" style="text;html=1;align=center;verticalAlign=middle;whiteSpace=wrap;rounded=0;" vertex="1" parent="1">
          <mxGeometry x="2020" y="922.5" width="260" height="30" as="geometry" />
        </mxCell>
        <mxCell id="pIqjqkyUgT4Ita8mCVpo-288" value="" style="strokeWidth=1;shadow=0;dashed=0;align=center;html=1;shape=mxgraph.mockup.forms.rrect;rSize=5;strokeColor=#999999;fillColor=#ffffff;" vertex="1" parent="1">
          <mxGeometry x="1030" y="375" width="900" height="730" as="geometry" />
        </mxCell>
        <mxCell id="pIqjqkyUgT4Ita8mCVpo-289" value="October 2014" style="strokeWidth=1;shadow=0;dashed=0;align=center;html=1;shape=mxgraph.mockup.forms.anchor;fontColor=#999999;" vertex="1" parent="pIqjqkyUgT4Ita8mCVpo-288">
          <mxGeometry x="168.75" y="33.37142857142858" width="562.5" height="83.42857142857144" as="geometry" />
        </mxCell>
        <mxCell id="pIqjqkyUgT4Ita8mCVpo-290" value="&lt;" style="strokeWidth=1;shadow=0;dashed=0;align=center;html=1;shape=mxgraph.mockup.forms.rrect;rSize=4;strokeColor=#999999;fontColor=#008cff;fontSize=19;fontStyle=1;" vertex="1" parent="pIqjqkyUgT4Ita8mCVpo-288">
          <mxGeometry x="45" y="33.37142857142858" width="140.625" height="83.42857142857144" as="geometry" />
        </mxCell>
        <mxCell id="pIqjqkyUgT4Ita8mCVpo-291" value="&gt;" style="strokeWidth=1;shadow=0;dashed=0;align=center;html=1;shape=mxgraph.mockup.forms.rrect;rSize=4;strokeColor=#999999;fontColor=#008cff;fontSize=19;fontStyle=1;" vertex="1" parent="pIqjqkyUgT4Ita8mCVpo-288">
          <mxGeometry x="714.375" y="33.37142857142858" width="140.625" height="83.42857142857144" as="geometry" />
        </mxCell>
        <mxCell id="pIqjqkyUgT4Ita8mCVpo-292" value="Mo" style="strokeWidth=1;shadow=0;dashed=0;align=center;html=1;shape=mxgraph.mockup.forms.anchor;fontColor=#999999;" vertex="1" parent="pIqjqkyUgT4Ita8mCVpo-288">
          <mxGeometry x="56.25" y="116.80000000000001" width="112.5" height="83.42857142857144" as="geometry" />
        </mxCell>
        <mxCell id="pIqjqkyUgT4Ita8mCVpo-293" value="Tu" style="strokeWidth=1;shadow=0;dashed=0;align=center;html=1;shape=mxgraph.mockup.forms.anchor;fontColor=#999999;" vertex="1" parent="pIqjqkyUgT4Ita8mCVpo-288">
          <mxGeometry x="168.75" y="116.80000000000001" width="112.5" height="83.42857142857144" as="geometry" />
        </mxCell>
        <mxCell id="pIqjqkyUgT4Ita8mCVpo-294" value="We" style="strokeWidth=1;shadow=0;dashed=0;align=center;html=1;shape=mxgraph.mockup.forms.anchor;fontColor=#999999;" vertex="1" parent="pIqjqkyUgT4Ita8mCVpo-288">
          <mxGeometry x="281.25" y="116.80000000000001" width="112.5" height="83.42857142857144" as="geometry" />
        </mxCell>
        <mxCell id="pIqjqkyUgT4Ita8mCVpo-295" value="Th" style="strokeWidth=1;shadow=0;dashed=0;align=center;html=1;shape=mxgraph.mockup.forms.anchor;fontColor=#999999;" vertex="1" parent="pIqjqkyUgT4Ita8mCVpo-288">
          <mxGeometry x="393.75" y="116.80000000000001" width="112.5" height="83.42857142857144" as="geometry" />
        </mxCell>
        <mxCell id="pIqjqkyUgT4Ita8mCVpo-296" value="Fr" style="strokeWidth=1;shadow=0;dashed=0;align=center;html=1;shape=mxgraph.mockup.forms.anchor;fontColor=#999999;" vertex="1" parent="pIqjqkyUgT4Ita8mCVpo-288">
          <mxGeometry x="506.24999999999994" y="116.80000000000001" width="112.5" height="83.42857142857144" as="geometry" />
        </mxCell>
        <mxCell id="pIqjqkyUgT4Ita8mCVpo-297" value="Sa" style="strokeWidth=1;shadow=0;dashed=0;align=center;html=1;shape=mxgraph.mockup.forms.anchor;fontColor=#999999;" vertex="1" parent="pIqjqkyUgT4Ita8mCVpo-288">
          <mxGeometry x="618.75" y="116.80000000000001" width="112.5" height="83.42857142857144" as="geometry" />
        </mxCell>
        <mxCell id="pIqjqkyUgT4Ita8mCVpo-298" value="Su" style="strokeWidth=1;shadow=0;dashed=0;align=center;html=1;shape=mxgraph.mockup.forms.anchor;fontColor=#999999;" vertex="1" parent="pIqjqkyUgT4Ita8mCVpo-288">
          <mxGeometry x="731.25" y="116.80000000000001" width="112.5" height="83.42857142857144" as="geometry" />
        </mxCell>
        <mxCell id="pIqjqkyUgT4Ita8mCVpo-299" value="1" style="strokeWidth=1;shadow=0;dashed=0;align=center;html=1;shape=mxgraph.mockup.forms.rrect;rSize=0;strokeColor=#999999;fontColor=#999999;" vertex="1" parent="pIqjqkyUgT4Ita8mCVpo-288">
          <mxGeometry x="56.25" y="200.2285714285715" width="112.5" height="83.42857142857144" as="geometry" />
        </mxCell>
        <mxCell id="pIqjqkyUgT4Ita8mCVpo-300" value="2" style="strokeWidth=1;shadow=0;dashed=0;align=center;html=1;shape=mxgraph.mockup.forms.rrect;rSize=0;strokeColor=#999999;fontColor=#999999;" vertex="1" parent="pIqjqkyUgT4Ita8mCVpo-288">
          <mxGeometry x="168.75" y="200.2285714285715" width="112.5" height="83.42857142857144" as="geometry" />
        </mxCell>
        <mxCell id="pIqjqkyUgT4Ita8mCVpo-301" value="3" style="strokeWidth=1;shadow=0;dashed=0;align=center;html=1;shape=mxgraph.mockup.forms.rrect;rSize=0;strokeColor=#999999;fontColor=#999999;" vertex="1" parent="pIqjqkyUgT4Ita8mCVpo-288">
          <mxGeometry x="281.25" y="200.2285714285715" width="112.5" height="83.42857142857144" as="geometry" />
        </mxCell>
        <mxCell id="pIqjqkyUgT4Ita8mCVpo-302" value="4" style="strokeWidth=1;shadow=0;dashed=0;align=center;html=1;shape=mxgraph.mockup.forms.rrect;rSize=0;strokeColor=#999999;fontColor=#999999;" vertex="1" parent="pIqjqkyUgT4Ita8mCVpo-288">
          <mxGeometry x="393.75" y="200.2285714285715" width="112.5" height="83.42857142857144" as="geometry" />
        </mxCell>
        <mxCell id="pIqjqkyUgT4Ita8mCVpo-303" value="5" style="strokeWidth=1;shadow=0;dashed=0;align=center;html=1;shape=mxgraph.mockup.forms.rrect;rSize=0;strokeColor=#999999;fontColor=#999999;" vertex="1" parent="pIqjqkyUgT4Ita8mCVpo-288">
          <mxGeometry x="506.24999999999994" y="200.2285714285715" width="112.5" height="83.42857142857144" as="geometry" />
        </mxCell>
        <mxCell id="pIqjqkyUgT4Ita8mCVpo-304" value="6" style="strokeWidth=1;shadow=0;dashed=0;align=center;html=1;shape=mxgraph.mockup.forms.rrect;rSize=0;strokeColor=#999999;fontColor=#999999;" vertex="1" parent="pIqjqkyUgT4Ita8mCVpo-288">
          <mxGeometry x="618.75" y="200.2285714285715" width="112.5" height="83.42857142857144" as="geometry" />
        </mxCell>
        <mxCell id="pIqjqkyUgT4Ita8mCVpo-305" value="7" style="strokeWidth=1;shadow=0;dashed=0;align=center;html=1;shape=mxgraph.mockup.forms.rrect;rSize=0;strokeColor=#999999;fontColor=#999999;" vertex="1" parent="pIqjqkyUgT4Ita8mCVpo-288">
          <mxGeometry x="731.25" y="200.2285714285715" width="112.5" height="83.42857142857144" as="geometry" />
        </mxCell>
        <mxCell id="pIqjqkyUgT4Ita8mCVpo-306" value="8" style="strokeWidth=1;shadow=0;dashed=0;align=center;html=1;shape=mxgraph.mockup.forms.rrect;rSize=0;strokeColor=#999999;fontColor=#999999;" vertex="1" parent="pIqjqkyUgT4Ita8mCVpo-288">
          <mxGeometry x="56.25" y="283.6571428571429" width="112.5" height="83.42857142857144" as="geometry" />
        </mxCell>
        <mxCell id="pIqjqkyUgT4Ita8mCVpo-307" value="9" style="strokeWidth=1;shadow=0;dashed=0;align=center;html=1;shape=mxgraph.mockup.forms.rrect;rSize=0;strokeColor=#999999;fontColor=#999999;" vertex="1" parent="pIqjqkyUgT4Ita8mCVpo-288">
          <mxGeometry x="168.75" y="283.6571428571429" width="112.5" height="83.42857142857144" as="geometry" />
        </mxCell>
        <mxCell id="pIqjqkyUgT4Ita8mCVpo-308" value="10" style="strokeWidth=1;shadow=0;dashed=0;align=center;html=1;shape=mxgraph.mockup.forms.rrect;rSize=0;strokeColor=#999999;fontColor=#999999;" vertex="1" parent="pIqjqkyUgT4Ita8mCVpo-288">
          <mxGeometry x="281.25" y="283.6571428571429" width="112.5" height="83.42857142857144" as="geometry" />
        </mxCell>
        <mxCell id="pIqjqkyUgT4Ita8mCVpo-309" value="11" style="strokeWidth=1;shadow=0;dashed=0;align=center;html=1;shape=mxgraph.mockup.forms.rrect;rSize=0;strokeColor=#999999;fontColor=#999999;" vertex="1" parent="pIqjqkyUgT4Ita8mCVpo-288">
          <mxGeometry x="393.75" y="283.6571428571429" width="112.5" height="83.42857142857144" as="geometry" />
        </mxCell>
        <mxCell id="pIqjqkyUgT4Ita8mCVpo-310" value="12" style="strokeWidth=1;shadow=0;dashed=0;align=center;html=1;shape=mxgraph.mockup.forms.rrect;rSize=0;strokeColor=#999999;fontColor=#999999;" vertex="1" parent="pIqjqkyUgT4Ita8mCVpo-288">
          <mxGeometry x="506.24999999999994" y="283.6571428571429" width="112.5" height="83.42857142857144" as="geometry" />
        </mxCell>
        <mxCell id="pIqjqkyUgT4Ita8mCVpo-311" value="13" style="strokeWidth=1;shadow=0;dashed=0;align=center;html=1;shape=mxgraph.mockup.forms.rrect;rSize=0;strokeColor=#999999;fontColor=#999999;" vertex="1" parent="pIqjqkyUgT4Ita8mCVpo-288">
          <mxGeometry x="618.75" y="283.6571428571429" width="112.5" height="83.42857142857144" as="geometry" />
        </mxCell>
        <mxCell id="pIqjqkyUgT4Ita8mCVpo-312" value="14" style="strokeWidth=1;shadow=0;dashed=0;align=center;html=1;shape=mxgraph.mockup.forms.rrect;rSize=0;strokeColor=#999999;fontColor=#999999;" vertex="1" parent="pIqjqkyUgT4Ita8mCVpo-288">
          <mxGeometry x="731.25" y="283.6571428571429" width="112.5" height="83.42857142857144" as="geometry" />
        </mxCell>
        <mxCell id="pIqjqkyUgT4Ita8mCVpo-313" value="15" style="strokeWidth=1;shadow=0;dashed=0;align=center;html=1;shape=mxgraph.mockup.forms.rrect;rSize=0;strokeColor=#999999;fontColor=#999999;" vertex="1" parent="pIqjqkyUgT4Ita8mCVpo-288">
          <mxGeometry x="56.25" y="367.08571428571435" width="112.5" height="83.42857142857144" as="geometry" />
        </mxCell>
        <mxCell id="pIqjqkyUgT4Ita8mCVpo-314" value="16" style="strokeWidth=1;shadow=0;dashed=0;align=center;html=1;shape=mxgraph.mockup.forms.rrect;rSize=0;strokeColor=#999999;fontColor=#999999;" vertex="1" parent="pIqjqkyUgT4Ita8mCVpo-288">
          <mxGeometry x="168.75" y="367.08571428571435" width="112.5" height="83.42857142857144" as="geometry" />
        </mxCell>
        <mxCell id="pIqjqkyUgT4Ita8mCVpo-315" value="17" style="strokeWidth=1;shadow=0;dashed=0;align=center;html=1;shape=mxgraph.mockup.forms.rrect;rSize=0;strokeColor=#999999;fontColor=#999999;" vertex="1" parent="pIqjqkyUgT4Ita8mCVpo-288">
          <mxGeometry x="281.25" y="367.08571428571435" width="112.5" height="83.42857142857144" as="geometry" />
        </mxCell>
        <mxCell id="pIqjqkyUgT4Ita8mCVpo-316" value="18" style="strokeWidth=1;shadow=0;dashed=0;align=center;html=1;shape=mxgraph.mockup.forms.rrect;rSize=0;strokeColor=#999999;fontColor=#999999;" vertex="1" parent="pIqjqkyUgT4Ita8mCVpo-288">
          <mxGeometry x="393.75" y="367.08571428571435" width="112.5" height="83.42857142857144" as="geometry" />
        </mxCell>
        <mxCell id="pIqjqkyUgT4Ita8mCVpo-317" value="19" style="strokeWidth=1;shadow=0;dashed=0;align=center;html=1;shape=mxgraph.mockup.forms.rrect;rSize=0;strokeColor=#999999;fontColor=#999999;" vertex="1" parent="pIqjqkyUgT4Ita8mCVpo-288">
          <mxGeometry x="506.24999999999994" y="367.08571428571435" width="112.5" height="83.42857142857144" as="geometry" />
        </mxCell>
        <mxCell id="pIqjqkyUgT4Ita8mCVpo-318" value="20" style="strokeWidth=1;shadow=0;dashed=0;align=center;html=1;shape=mxgraph.mockup.forms.rrect;rSize=0;strokeColor=#999999;fontColor=#999999;" vertex="1" parent="pIqjqkyUgT4Ita8mCVpo-288">
          <mxGeometry x="618.75" y="367.08571428571435" width="112.5" height="83.42857142857144" as="geometry" />
        </mxCell>
        <mxCell id="pIqjqkyUgT4Ita8mCVpo-319" value="21" style="strokeWidth=1;shadow=0;dashed=0;align=center;html=1;shape=mxgraph.mockup.forms.rrect;rSize=0;strokeColor=#999999;fontColor=#999999;" vertex="1" parent="pIqjqkyUgT4Ita8mCVpo-288">
          <mxGeometry x="731.25" y="367.08571428571435" width="112.5" height="83.42857142857144" as="geometry" />
        </mxCell>
        <mxCell id="pIqjqkyUgT4Ita8mCVpo-320" value="22" style="strokeWidth=1;shadow=0;dashed=0;align=center;html=1;shape=mxgraph.mockup.forms.rrect;rSize=0;strokeColor=#999999;fontColor=#999999;" vertex="1" parent="pIqjqkyUgT4Ita8mCVpo-288">
          <mxGeometry x="56.25" y="450.51428571428573" width="112.5" height="83.42857142857144" as="geometry" />
        </mxCell>
        <mxCell id="pIqjqkyUgT4Ita8mCVpo-321" value="23" style="strokeWidth=1;shadow=0;dashed=0;align=center;html=1;shape=mxgraph.mockup.forms.rrect;rSize=0;strokeColor=#999999;fontColor=#999999;" vertex="1" parent="pIqjqkyUgT4Ita8mCVpo-288">
          <mxGeometry x="168.75" y="450.51428571428573" width="112.5" height="83.42857142857144" as="geometry" />
        </mxCell>
        <mxCell id="pIqjqkyUgT4Ita8mCVpo-322" value="25" style="strokeWidth=1;shadow=0;dashed=0;align=center;html=1;shape=mxgraph.mockup.forms.rrect;rSize=0;strokeColor=#999999;fontColor=#999999;" vertex="1" parent="pIqjqkyUgT4Ita8mCVpo-288">
          <mxGeometry x="393.75" y="450.51428571428573" width="112.5" height="83.42857142857144" as="geometry" />
        </mxCell>
        <mxCell id="pIqjqkyUgT4Ita8mCVpo-323" value="26" style="strokeWidth=1;shadow=0;dashed=0;align=center;html=1;shape=mxgraph.mockup.forms.rrect;rSize=0;strokeColor=#999999;fontColor=#999999;" vertex="1" parent="pIqjqkyUgT4Ita8mCVpo-288">
          <mxGeometry x="506.24999999999994" y="450.51428571428573" width="112.5" height="83.42857142857144" as="geometry" />
        </mxCell>
        <mxCell id="pIqjqkyUgT4Ita8mCVpo-324" value="27" style="strokeWidth=1;shadow=0;dashed=0;align=center;html=1;shape=mxgraph.mockup.forms.rrect;rSize=0;strokeColor=#999999;fontColor=#999999;" vertex="1" parent="pIqjqkyUgT4Ita8mCVpo-288">
          <mxGeometry x="618.75" y="450.51428571428573" width="112.5" height="83.42857142857144" as="geometry" />
        </mxCell>
        <mxCell id="pIqjqkyUgT4Ita8mCVpo-325" value="28" style="strokeWidth=1;shadow=0;dashed=0;align=center;html=1;shape=mxgraph.mockup.forms.rrect;rSize=0;strokeColor=#999999;fontColor=#999999;" vertex="1" parent="pIqjqkyUgT4Ita8mCVpo-288">
          <mxGeometry x="731.25" y="450.51428571428573" width="112.5" height="83.42857142857144" as="geometry" />
        </mxCell>
        <mxCell id="pIqjqkyUgT4Ita8mCVpo-326" value="29" style="strokeWidth=1;shadow=0;dashed=0;align=center;html=1;shape=mxgraph.mockup.forms.rrect;rSize=0;strokeColor=#999999;fontColor=#999999;" vertex="1" parent="pIqjqkyUgT4Ita8mCVpo-288">
          <mxGeometry x="56.25" y="533.9428571428573" width="112.5" height="83.42857142857144" as="geometry" />
        </mxCell>
        <mxCell id="pIqjqkyUgT4Ita8mCVpo-327" value="30" style="strokeWidth=1;shadow=0;dashed=0;align=center;html=1;shape=mxgraph.mockup.forms.rrect;rSize=0;strokeColor=#999999;fontColor=#999999;" vertex="1" parent="pIqjqkyUgT4Ita8mCVpo-288">
          <mxGeometry x="168.75" y="533.9428571428573" width="112.5" height="83.42857142857144" as="geometry" />
        </mxCell>
        <mxCell id="pIqjqkyUgT4Ita8mCVpo-328" value="31" style="strokeWidth=1;shadow=0;dashed=0;align=center;html=1;shape=mxgraph.mockup.forms.rrect;rSize=0;strokeColor=#999999;fontColor=#999999;" vertex="1" parent="pIqjqkyUgT4Ita8mCVpo-288">
          <mxGeometry x="281.25" y="533.9428571428573" width="112.5" height="83.42857142857144" as="geometry" />
        </mxCell>
        <mxCell id="pIqjqkyUgT4Ita8mCVpo-329" value="1" style="strokeWidth=1;shadow=0;dashed=0;align=center;html=1;shape=mxgraph.mockup.forms.rrect;rSize=0;strokeColor=#999999;fontColor=#999999;fillColor=#ddeeff;" vertex="1" parent="pIqjqkyUgT4Ita8mCVpo-288">
          <mxGeometry x="393.75" y="533.9428571428573" width="112.5" height="83.42857142857144" as="geometry" />
        </mxCell>
        <mxCell id="pIqjqkyUgT4Ita8mCVpo-330" value="2" style="strokeWidth=1;shadow=0;dashed=0;align=center;html=1;shape=mxgraph.mockup.forms.rrect;rSize=0;strokeColor=#999999;fontColor=#999999;fillColor=#ddeeff;" vertex="1" parent="pIqjqkyUgT4Ita8mCVpo-288">
          <mxGeometry x="506.24999999999994" y="533.9428571428573" width="112.5" height="83.42857142857144" as="geometry" />
        </mxCell>
        <mxCell id="pIqjqkyUgT4Ita8mCVpo-331" value="3" style="strokeWidth=1;shadow=0;dashed=0;align=center;html=1;shape=mxgraph.mockup.forms.rrect;rSize=0;strokeColor=#999999;fontColor=#999999;fillColor=#ddeeff;" vertex="1" parent="pIqjqkyUgT4Ita8mCVpo-288">
          <mxGeometry x="618.75" y="533.9428571428573" width="112.5" height="83.42857142857144" as="geometry" />
        </mxCell>
        <mxCell id="pIqjqkyUgT4Ita8mCVpo-332" value="4" style="strokeWidth=1;shadow=0;dashed=0;align=center;html=1;shape=mxgraph.mockup.forms.rrect;rSize=0;strokeColor=#999999;fontColor=#999999;fillColor=#ddeeff;" vertex="1" parent="pIqjqkyUgT4Ita8mCVpo-288">
          <mxGeometry x="731.25" y="533.9428571428573" width="112.5" height="83.42857142857144" as="geometry" />
        </mxCell>
        <mxCell id="pIqjqkyUgT4Ita8mCVpo-333" value="5" style="strokeWidth=1;shadow=0;dashed=0;align=center;html=1;shape=mxgraph.mockup.forms.rrect;rSize=0;strokeColor=#999999;fontColor=#999999;fillColor=#ddeeff;" vertex="1" parent="pIqjqkyUgT4Ita8mCVpo-288">
          <mxGeometry x="56.25" y="617.3714285714287" width="112.5" height="83.42857142857144" as="geometry" />
        </mxCell>
        <mxCell id="pIqjqkyUgT4Ita8mCVpo-334" value="6" style="strokeWidth=1;shadow=0;dashed=0;align=center;html=1;shape=mxgraph.mockup.forms.rrect;rSize=0;strokeColor=#999999;fontColor=#999999;fillColor=#ddeeff;" vertex="1" parent="pIqjqkyUgT4Ita8mCVpo-288">
          <mxGeometry x="168.75" y="617.3714285714287" width="112.5" height="83.42857142857144" as="geometry" />
        </mxCell>
        <mxCell id="pIqjqkyUgT4Ita8mCVpo-335" value="7" style="strokeWidth=1;shadow=0;dashed=0;align=center;html=1;shape=mxgraph.mockup.forms.rrect;rSize=0;strokeColor=#999999;fontColor=#999999;fillColor=#ddeeff;" vertex="1" parent="pIqjqkyUgT4Ita8mCVpo-288">
          <mxGeometry x="281.25" y="617.3714285714287" width="112.5" height="83.42857142857144" as="geometry" />
        </mxCell>
        <mxCell id="pIqjqkyUgT4Ita8mCVpo-336" value="8" style="strokeWidth=1;shadow=0;dashed=0;align=center;html=1;shape=mxgraph.mockup.forms.rrect;rSize=0;strokeColor=#999999;fontColor=#999999;fillColor=#ddeeff;" vertex="1" parent="pIqjqkyUgT4Ita8mCVpo-288">
          <mxGeometry x="393.75" y="617.3714285714287" width="112.5" height="83.42857142857144" as="geometry" />
        </mxCell>
        <mxCell id="pIqjqkyUgT4Ita8mCVpo-337" value="9" style="strokeWidth=1;shadow=0;dashed=0;align=center;html=1;shape=mxgraph.mockup.forms.rrect;rSize=0;strokeColor=#999999;fontColor=#999999;fillColor=#ddeeff;" vertex="1" parent="pIqjqkyUgT4Ita8mCVpo-288">
          <mxGeometry x="506.24999999999994" y="617.3714285714287" width="112.5" height="83.42857142857144" as="geometry" />
        </mxCell>
        <mxCell id="pIqjqkyUgT4Ita8mCVpo-338" value="10" style="strokeWidth=1;shadow=0;dashed=0;align=center;html=1;shape=mxgraph.mockup.forms.rrect;rSize=0;strokeColor=#999999;fontColor=#999999;fillColor=#ddeeff;" vertex="1" parent="pIqjqkyUgT4Ita8mCVpo-288">
          <mxGeometry x="618.75" y="617.3714285714287" width="112.5" height="83.42857142857144" as="geometry" />
        </mxCell>
        <mxCell id="pIqjqkyUgT4Ita8mCVpo-339" value="11" style="strokeWidth=1;shadow=0;dashed=0;align=center;html=1;shape=mxgraph.mockup.forms.rrect;rSize=0;strokeColor=#999999;fontColor=#999999;fillColor=#ddeeff;" vertex="1" parent="pIqjqkyUgT4Ita8mCVpo-288">
          <mxGeometry x="731.25" y="617.3714285714287" width="112.5" height="83.42857142857144" as="geometry" />
        </mxCell>
        <mxCell id="pIqjqkyUgT4Ita8mCVpo-340" value="24" style="strokeWidth=1;shadow=0;dashed=0;align=center;html=1;shape=mxgraph.mockup.forms.rrect;rSize=0;strokeColor=#ff0000;fontColor=#ffffff;strokeWidth=2;fillColor=#008cff;" vertex="1" parent="pIqjqkyUgT4Ita8mCVpo-288">
          <mxGeometry x="281.25" y="450.51428571428573" width="112.5" height="83.42857142857144" as="geometry" />
        </mxCell>
        <mxCell id="pIqjqkyUgT4Ita8mCVpo-341" value="&lt;font style=&quot;font-size: 25px;&quot;&gt;Starting Date&lt;/font&gt;" style="text;html=1;align=center;verticalAlign=middle;whiteSpace=wrap;rounded=0;" vertex="1" parent="1">
          <mxGeometry x="1970" y="961.25" width="260" height="30" as="geometry" />
        </mxCell>
        <mxCell id="pIqjqkyUgT4Ita8mCVpo-342" value="&lt;font style=&quot;font-size: 25px;&quot;&gt;End Date&lt;/font&gt;&lt;div&gt;&lt;font style=&quot;font-size: 25px;&quot;&gt;&lt;br&gt;&lt;/font&gt;&lt;/div&gt;" style="text;html=1;align=center;verticalAlign=middle;whiteSpace=wrap;rounded=0;" vertex="1" parent="1">
          <mxGeometry x="1950" y="1020" width="260" height="30" as="geometry" />
        </mxCell>
        <mxCell id="pIqjqkyUgT4Ita8mCVpo-345" value="" style="verticalLabelPosition=bottom;shadow=0;dashed=0;align=center;html=1;verticalAlign=top;strokeWidth=1;shape=mxgraph.mockup.misc.map;" vertex="1" parent="1">
          <mxGeometry x="2020" y="423" width="440" height="250" as="geometry" />
        </mxCell>
        <mxCell id="pIqjqkyUgT4Ita8mCVpo-346" value="&lt;font style=&quot;font-size: 25px;&quot;&gt;Company Name&lt;/font&gt;" style="text;html=1;align=center;verticalAlign=middle;whiteSpace=wrap;rounded=0;" vertex="1" parent="1">
          <mxGeometry x="1980" y="720" width="260" height="30" as="geometry" />
        </mxCell>
        <mxCell id="pIqjqkyUgT4Ita8mCVpo-349" value="&lt;font style=&quot;font-size: 25px;&quot;&gt;Contact Number&lt;/font&gt;" style="text;html=1;align=center;verticalAlign=middle;whiteSpace=wrap;rounded=0;" vertex="1" parent="1">
          <mxGeometry x="1980" y="760" width="260" height="30" as="geometry" />
        </mxCell>
        <mxCell id="pIqjqkyUgT4Ita8mCVpo-350" value="&lt;font style=&quot;font-size: 25px;&quot;&gt;Email&lt;/font&gt;" style="text;html=1;align=center;verticalAlign=middle;whiteSpace=wrap;rounded=0;" vertex="1" parent="1">
          <mxGeometry x="1920" y="800" width="260" height="30" as="geometry" />
        </mxCell>
        <mxCell id="pIqjqkyUgT4Ita8mCVpo-352" value="&lt;font style=&quot;font-size: 25px;&quot;&gt;Director&lt;/font&gt;" style="text;html=1;align=center;verticalAlign=middle;whiteSpace=wrap;rounded=0;" vertex="1" parent="1">
          <mxGeometry x="1930" y="840" width="260" height="30" as="geometry" />
        </mxCell>
        <mxCell id="pIqjqkyUgT4Ita8mCVpo-353" value="" style="rounded=0;whiteSpace=wrap;html=1;" vertex="1" parent="1">
          <mxGeometry x="1010" y="2373" width="1600" height="877" as="geometry" />
        </mxCell>
        <mxCell id="pIqjqkyUgT4Ita8mCVpo-354" value="" style="shape=ext;double=1;rounded=0;whiteSpace=wrap;html=1;" vertex="1" parent="1">
          <mxGeometry x="710" y="2040" width="1990" height="1280" as="geometry" />
        </mxCell>
        <mxCell id="pIqjqkyUgT4Ita8mCVpo-355" value="" style="shape=ext;double=1;rounded=0;whiteSpace=wrap;html=1;" vertex="1" parent="1">
          <mxGeometry x="710" y="2020" width="1990" height="120" as="geometry" />
        </mxCell>
        <mxCell id="pIqjqkyUgT4Ita8mCVpo-356" value="" style="ellipse;shape=doubleEllipse;whiteSpace=wrap;html=1;aspect=fixed;" vertex="1" parent="1">
          <mxGeometry x="757" y="2045" width="80" height="80" as="geometry" />
        </mxCell>
        <mxCell id="pIqjqkyUgT4Ita8mCVpo-357" value="" style="rounded=1;whiteSpace=wrap;html=1;" vertex="1" parent="1">
          <mxGeometry x="2220" y="2050" width="70" height="45" as="geometry" />
        </mxCell>
        <mxCell id="pIqjqkyUgT4Ita8mCVpo-358" value="" style="rounded=1;whiteSpace=wrap;html=1;" vertex="1" parent="1">
          <mxGeometry x="2380" y="2050" width="60" height="45" as="geometry" />
        </mxCell>
        <mxCell id="pIqjqkyUgT4Ita8mCVpo-359" value="" style="whiteSpace=wrap;html=1;aspect=fixed;verticalLabelPosition=bottom;shadow=0;dashed=0;verticalAlign=top;strokeWidth=1;shape=mxgraph.mockup.containers.userMale;strokeColor=#666666;strokeColor2=#008cff;" vertex="1" parent="1">
          <mxGeometry x="2580" y="2045" width="80" height="80" as="geometry" />
        </mxCell>
        <mxCell id="pIqjqkyUgT4Ita8mCVpo-360" value="" style="shape=triangle;direction=south;fillColor=#ffffff;strokeColor=none;perimeter=none;" vertex="1" parent="1">
          <mxGeometry x="2753" y="2097.5" width="10" height="5" as="geometry" />
        </mxCell>
        <mxCell id="pIqjqkyUgT4Ita8mCVpo-361" value="" style="rounded=0;whiteSpace=wrap;html=1;" vertex="1" parent="1">
          <mxGeometry x="710" y="2140" width="270" height="1185" as="geometry" />
        </mxCell>
        <mxCell id="pIqjqkyUgT4Ita8mCVpo-362" value="&#xa;&lt;span style=&quot;color: rgb(0, 0, 0); font-family: Helvetica; font-size: 25px; font-style: normal; font-variant-ligatures: normal; font-variant-caps: normal; font-weight: 400; letter-spacing: normal; orphans: 2; text-align: center; text-indent: 0px; text-transform: none; widows: 2; word-spacing: 0px; -webkit-text-stroke-width: 0px; white-space: normal; background-color: rgb(251, 251, 251); text-decoration-thickness: initial; text-decoration-style: initial; text-decoration-color: initial; display: inline !important; float: none;&quot;&gt;Profile&lt;/span&gt;&#xa;&#xa;" style="text;html=1;align=center;verticalAlign=middle;whiteSpace=wrap;rounded=0;" vertex="1" parent="1">
          <mxGeometry x="765" y="2215" width="160" height="50" as="geometry" />
        </mxCell>
        <mxCell id="pIqjqkyUgT4Ita8mCVpo-363" value="&lt;font style=&quot;font-size: 25px;&quot;&gt;Internship&lt;/font&gt;" style="text;html=1;align=center;verticalAlign=middle;whiteSpace=wrap;rounded=0;" vertex="1" parent="1">
          <mxGeometry x="780" y="2315" width="130" height="50" as="geometry" />
        </mxCell>
        <mxCell id="pIqjqkyUgT4Ita8mCVpo-364" value="&lt;font style=&quot;font-size: 25px;&quot;&gt;My Application&lt;/font&gt;" style="text;html=1;align=center;verticalAlign=middle;whiteSpace=wrap;rounded=0;" vertex="1" parent="1">
          <mxGeometry x="765" y="2420" width="165" height="50" as="geometry" />
        </mxCell>
        <mxCell id="pIqjqkyUgT4Ita8mCVpo-365" value="Search" style="strokeWidth=1;shadow=0;dashed=0;align=center;html=1;shape=mxgraph.mockup.forms.searchBox;strokeColor=#999999;mainText=;strokeColor2=#008cff;fontColor=#666666;fontSize=17;align=left;spacingLeft=3;whiteSpace=wrap;" vertex="1" parent="1">
          <mxGeometry x="1010" y="2200" width="250" height="55" as="geometry" />
        </mxCell>
        <mxCell id="pIqjqkyUgT4Ita8mCVpo-366" value="" style="html=1;shadow=0;dashed=0;shape=mxgraph.bootstrap.rrect;rSize=5;strokeColor=#DEE2E6;html=1;whiteSpace=wrap;fillColor=#ffffff;fontColor=#0085FC;" vertex="1" parent="1">
          <mxGeometry x="1770" y="3260" width="150" height="40" as="geometry" />
        </mxCell>
        <mxCell id="pIqjqkyUgT4Ita8mCVpo-367" value="&lt;&lt;" style="strokeColor=inherit;fillColor=inherit;gradientColor=inherit;fontColor=inherit;html=1;shadow=0;dashed=0;shape=mxgraph.bootstrap.leftButton;rSize=5;perimeter=none;whiteSpace=wrap;resizeHeight=1;fontSize=14;" vertex="1" parent="pIqjqkyUgT4Ita8mCVpo-366">
          <mxGeometry width="30" height="40" relative="1" as="geometry" />
        </mxCell>
        <mxCell id="pIqjqkyUgT4Ita8mCVpo-368" value="1" style="strokeColor=inherit;fillColor=inherit;gradientColor=inherit;fontColor=inherit;html=1;shadow=0;dashed=0;perimeter=none;whiteSpace=wrap;resizeHeight=1;fontSize=14;" vertex="1" parent="pIqjqkyUgT4Ita8mCVpo-366">
          <mxGeometry width="30" height="40" relative="1" as="geometry">
            <mxPoint x="30" as="offset" />
          </mxGeometry>
        </mxCell>
        <mxCell id="pIqjqkyUgT4Ita8mCVpo-369" value="2" style="strokeColor=inherit;fillColor=inherit;gradientColor=inherit;fontColor=inherit;html=1;shadow=0;dashed=0;perimeter=none;whiteSpace=wrap;resizeHeight=1;fontSize=14;" vertex="1" parent="pIqjqkyUgT4Ita8mCVpo-366">
          <mxGeometry width="30" height="40" relative="1" as="geometry">
            <mxPoint x="60" as="offset" />
          </mxGeometry>
        </mxCell>
        <mxCell id="pIqjqkyUgT4Ita8mCVpo-370" value="3" style="strokeColor=inherit;fillColor=inherit;gradientColor=inherit;fontColor=inherit;html=1;shadow=0;dashed=0;perimeter=none;whiteSpace=wrap;resizeHeight=1;fontSize=14;" vertex="1" parent="pIqjqkyUgT4Ita8mCVpo-366">
          <mxGeometry width="30" height="40" relative="1" as="geometry">
            <mxPoint x="90" as="offset" />
          </mxGeometry>
        </mxCell>
        <mxCell id="pIqjqkyUgT4Ita8mCVpo-371" value="&gt;&gt;" style="strokeColor=inherit;fillColor=inherit;gradientColor=inherit;fontColor=inherit;html=1;shadow=0;dashed=0;shape=mxgraph.bootstrap.rightButton;rSize=5;perimeter=none;whiteSpace=wrap;resizeHeight=1;fontSize=14;" vertex="1" parent="pIqjqkyUgT4Ita8mCVpo-366">
          <mxGeometry x="1" width="30" height="40" relative="1" as="geometry">
            <mxPoint x="-30" as="offset" />
          </mxGeometry>
        </mxCell>
        <mxCell id="pIqjqkyUgT4Ita8mCVpo-372" value="&lt;font style=&quot;font-size: 25px;&quot;&gt;Students&lt;/font&gt;" style="text;html=1;align=center;verticalAlign=middle;whiteSpace=wrap;rounded=0;" vertex="1" parent="1">
          <mxGeometry x="1750" y="2202.5" width="160" height="50" as="geometry" />
        </mxCell>
        <mxCell id="pIqjqkyUgT4Ita8mCVpo-373" value="&lt;span style=&quot;font-size: 25px;&quot;&gt;update/Delete&lt;/span&gt;&lt;div&gt;&lt;span style=&quot;font-size: 25px;&quot;&gt;&lt;br&gt;&lt;/span&gt;&lt;/div&gt;" style="strokeWidth=1;shadow=0;dashed=0;align=center;html=1;shape=mxgraph.mockup.buttons.button;strokeColor=#82b366;mainText=;buttonStyle=round;fontSize=17;fontStyle=1;fillColor=#d5e8d4;whiteSpace=wrap;" vertex="1" parent="1">
          <mxGeometry x="2440" y="2430" width="210" height="80" as="geometry" />
        </mxCell>
        <mxCell id="pIqjqkyUgT4Ita8mCVpo-380" value="&lt;div style=&quot;font-size: 25px;&quot;&gt;Course&lt;/div&gt;" style="text;html=1;align=center;verticalAlign=middle;whiteSpace=wrap;rounded=0;" vertex="1" parent="1">
          <mxGeometry x="2240" y="2430" width="160" height="50" as="geometry" />
        </mxCell>
        <mxCell id="pIqjqkyUgT4Ita8mCVpo-381" value="&lt;font style=&quot;font-size: 25px;&quot;&gt;Email&lt;/font&gt;" style="text;html=1;align=center;verticalAlign=middle;whiteSpace=wrap;rounded=0;" vertex="1" parent="1">
          <mxGeometry x="2060" y="2430" width="160" height="50" as="geometry" />
        </mxCell>
        <mxCell id="pIqjqkyUgT4Ita8mCVpo-382" value="&lt;font style=&quot;font-size: 25px;&quot;&gt;Contact Number&lt;/font&gt;" style="text;html=1;align=center;verticalAlign=middle;whiteSpace=wrap;rounded=0;" vertex="1" parent="1">
          <mxGeometry x="1810" y="2430" width="200" height="50" as="geometry" />
        </mxCell>
        <mxCell id="pIqjqkyUgT4Ita8mCVpo-383" value="&lt;font style=&quot;font-size: 25px;&quot;&gt;Address&lt;/font&gt;" style="text;html=1;align=center;verticalAlign=middle;whiteSpace=wrap;rounded=0;" vertex="1" parent="1">
          <mxGeometry x="1450" y="2425" width="160" height="50" as="geometry" />
        </mxCell>
        <mxCell id="pIqjqkyUgT4Ita8mCVpo-384" value="&lt;font style=&quot;font-size: 25px;&quot;&gt;Student Name&lt;/font&gt;" style="text;html=1;align=center;verticalAlign=middle;whiteSpace=wrap;rounded=0;" vertex="1" parent="1">
          <mxGeometry x="1160" y="2430" width="200" height="50" as="geometry" />
        </mxCell>
        <mxCell id="pIqjqkyUgT4Ita8mCVpo-385" value="&lt;font style=&quot;font-size: 25px;&quot;&gt;Insert&lt;/font&gt;" style="strokeWidth=1;shadow=0;dashed=0;align=center;html=1;shape=mxgraph.mockup.buttons.button;strokeColor=#666666;fontColor=#ffffff;mainText=;buttonStyle=round;fontSize=17;fontStyle=1;fillColor=#008cff;whiteSpace=wrap;" vertex="1" parent="1">
          <mxGeometry x="2440" y="2315" width="210" height="55" as="geometry" />
        </mxCell>
        <mxCell id="pIqjqkyUgT4Ita8mCVpo-386" value="" style="rounded=0;whiteSpace=wrap;html=1;" vertex="1" parent="1">
          <mxGeometry x="3188.5" y="2383" width="1600" height="877" as="geometry" />
        </mxCell>
        <mxCell id="pIqjqkyUgT4Ita8mCVpo-387" value="" style="shape=ext;double=1;rounded=0;whiteSpace=wrap;html=1;" vertex="1" parent="1">
          <mxGeometry x="2888.5" y="2050" width="1990" height="1280" as="geometry" />
        </mxCell>
        <mxCell id="pIqjqkyUgT4Ita8mCVpo-388" value="" style="shape=ext;double=1;rounded=0;whiteSpace=wrap;html=1;" vertex="1" parent="1">
          <mxGeometry x="2888.5" y="2030" width="1990" height="120" as="geometry" />
        </mxCell>
        <mxCell id="pIqjqkyUgT4Ita8mCVpo-389" value="" style="ellipse;shape=doubleEllipse;whiteSpace=wrap;html=1;aspect=fixed;" vertex="1" parent="1">
          <mxGeometry x="2935.5" y="2055" width="80" height="80" as="geometry" />
        </mxCell>
        <mxCell id="pIqjqkyUgT4Ita8mCVpo-390" value="" style="rounded=1;whiteSpace=wrap;html=1;" vertex="1" parent="1">
          <mxGeometry x="4398.5" y="2060" width="70" height="45" as="geometry" />
        </mxCell>
        <mxCell id="pIqjqkyUgT4Ita8mCVpo-391" value="" style="rounded=1;whiteSpace=wrap;html=1;" vertex="1" parent="1">
          <mxGeometry x="4558.5" y="2060" width="60" height="45" as="geometry" />
        </mxCell>
        <mxCell id="pIqjqkyUgT4Ita8mCVpo-392" value="" style="whiteSpace=wrap;html=1;aspect=fixed;verticalLabelPosition=bottom;shadow=0;dashed=0;verticalAlign=top;strokeWidth=1;shape=mxgraph.mockup.containers.userMale;strokeColor=#666666;strokeColor2=#008cff;" vertex="1" parent="1">
          <mxGeometry x="4758.5" y="2055" width="80" height="80" as="geometry" />
        </mxCell>
        <mxCell id="pIqjqkyUgT4Ita8mCVpo-393" value="" style="shape=triangle;direction=south;fillColor=#ffffff;strokeColor=none;perimeter=none;" vertex="1" parent="1">
          <mxGeometry x="4931.5" y="2107.5" width="10" height="5" as="geometry" />
        </mxCell>
        <mxCell id="pIqjqkyUgT4Ita8mCVpo-394" value="" style="rounded=0;whiteSpace=wrap;html=1;" vertex="1" parent="1">
          <mxGeometry x="2888.5" y="2150" width="270" height="1185" as="geometry" />
        </mxCell>
        <mxCell id="pIqjqkyUgT4Ita8mCVpo-395" value="&#xa;&lt;span style=&quot;color: rgb(0, 0, 0); font-family: Helvetica; font-size: 25px; font-style: normal; font-variant-ligatures: normal; font-variant-caps: normal; font-weight: 400; letter-spacing: normal; orphans: 2; text-align: center; text-indent: 0px; text-transform: none; widows: 2; word-spacing: 0px; -webkit-text-stroke-width: 0px; white-space: normal; background-color: rgb(251, 251, 251); text-decoration-thickness: initial; text-decoration-style: initial; text-decoration-color: initial; display: inline !important; float: none;&quot;&gt;Profile&lt;/span&gt;&#xa;&#xa;" style="text;html=1;align=center;verticalAlign=middle;whiteSpace=wrap;rounded=0;" vertex="1" parent="1">
          <mxGeometry x="2943.5" y="2225" width="160" height="50" as="geometry" />
        </mxCell>
        <mxCell id="pIqjqkyUgT4Ita8mCVpo-396" value="&lt;font style=&quot;font-size: 25px;&quot;&gt;Internship&lt;/font&gt;" style="text;html=1;align=center;verticalAlign=middle;whiteSpace=wrap;rounded=0;" vertex="1" parent="1">
          <mxGeometry x="2958.5" y="2325" width="130" height="50" as="geometry" />
        </mxCell>
        <mxCell id="pIqjqkyUgT4Ita8mCVpo-397" value="&lt;font style=&quot;font-size: 25px;&quot;&gt;My Application&lt;/font&gt;" style="text;html=1;align=center;verticalAlign=middle;whiteSpace=wrap;rounded=0;" vertex="1" parent="1">
          <mxGeometry x="2943.5" y="2430" width="165" height="50" as="geometry" />
        </mxCell>
        <mxCell id="pIqjqkyUgT4Ita8mCVpo-398" value="Search" style="strokeWidth=1;shadow=0;dashed=0;align=center;html=1;shape=mxgraph.mockup.forms.searchBox;strokeColor=#999999;mainText=;strokeColor2=#008cff;fontColor=#666666;fontSize=17;align=left;spacingLeft=3;whiteSpace=wrap;" vertex="1" parent="1">
          <mxGeometry x="3188.5" y="2210" width="250" height="55" as="geometry" />
        </mxCell>
        <mxCell id="pIqjqkyUgT4Ita8mCVpo-399" value="" style="html=1;shadow=0;dashed=0;shape=mxgraph.bootstrap.rrect;rSize=5;strokeColor=#DEE2E6;html=1;whiteSpace=wrap;fillColor=#ffffff;fontColor=#0085FC;" vertex="1" parent="1">
          <mxGeometry x="3948.5" y="3270" width="150" height="40" as="geometry" />
        </mxCell>
        <mxCell id="pIqjqkyUgT4Ita8mCVpo-400" value="&lt;&lt;" style="strokeColor=inherit;fillColor=inherit;gradientColor=inherit;fontColor=inherit;html=1;shadow=0;dashed=0;shape=mxgraph.bootstrap.leftButton;rSize=5;perimeter=none;whiteSpace=wrap;resizeHeight=1;fontSize=14;" vertex="1" parent="pIqjqkyUgT4Ita8mCVpo-399">
          <mxGeometry width="30" height="40" relative="1" as="geometry" />
        </mxCell>
        <mxCell id="pIqjqkyUgT4Ita8mCVpo-401" value="1" style="strokeColor=inherit;fillColor=inherit;gradientColor=inherit;fontColor=inherit;html=1;shadow=0;dashed=0;perimeter=none;whiteSpace=wrap;resizeHeight=1;fontSize=14;" vertex="1" parent="pIqjqkyUgT4Ita8mCVpo-399">
          <mxGeometry width="30" height="40" relative="1" as="geometry">
            <mxPoint x="30" as="offset" />
          </mxGeometry>
        </mxCell>
        <mxCell id="pIqjqkyUgT4Ita8mCVpo-402" value="2" style="strokeColor=inherit;fillColor=inherit;gradientColor=inherit;fontColor=inherit;html=1;shadow=0;dashed=0;perimeter=none;whiteSpace=wrap;resizeHeight=1;fontSize=14;" vertex="1" parent="pIqjqkyUgT4Ita8mCVpo-399">
          <mxGeometry width="30" height="40" relative="1" as="geometry">
            <mxPoint x="60" as="offset" />
          </mxGeometry>
        </mxCell>
        <mxCell id="pIqjqkyUgT4Ita8mCVpo-403" value="3" style="strokeColor=inherit;fillColor=inherit;gradientColor=inherit;fontColor=inherit;html=1;shadow=0;dashed=0;perimeter=none;whiteSpace=wrap;resizeHeight=1;fontSize=14;" vertex="1" parent="pIqjqkyUgT4Ita8mCVpo-399">
          <mxGeometry width="30" height="40" relative="1" as="geometry">
            <mxPoint x="90" as="offset" />
          </mxGeometry>
        </mxCell>
        <mxCell id="pIqjqkyUgT4Ita8mCVpo-404" value="&gt;&gt;" style="strokeColor=inherit;fillColor=inherit;gradientColor=inherit;fontColor=inherit;html=1;shadow=0;dashed=0;shape=mxgraph.bootstrap.rightButton;rSize=5;perimeter=none;whiteSpace=wrap;resizeHeight=1;fontSize=14;" vertex="1" parent="pIqjqkyUgT4Ita8mCVpo-399">
          <mxGeometry x="1" width="30" height="40" relative="1" as="geometry">
            <mxPoint x="-30" as="offset" />
          </mxGeometry>
        </mxCell>
        <mxCell id="pIqjqkyUgT4Ita8mCVpo-405" value="&lt;font style=&quot;font-size: 25px;&quot;&gt;Companies&lt;/font&gt;" style="text;html=1;align=center;verticalAlign=middle;whiteSpace=wrap;rounded=0;" vertex="1" parent="1">
          <mxGeometry x="3928.5" y="2212.5" width="160" height="50" as="geometry" />
        </mxCell>
        <mxCell id="pIqjqkyUgT4Ita8mCVpo-406" value="&lt;span style=&quot;font-size: 25px;&quot;&gt;update/Delete&lt;/span&gt;&lt;div&gt;&lt;span style=&quot;font-size: 25px;&quot;&gt;&lt;br&gt;&lt;/span&gt;&lt;/div&gt;" style="strokeWidth=1;shadow=0;dashed=0;align=center;html=1;shape=mxgraph.mockup.buttons.button;strokeColor=#82b366;mainText=;buttonStyle=round;fontSize=17;fontStyle=1;fillColor=#d5e8d4;whiteSpace=wrap;" vertex="1" parent="1">
          <mxGeometry x="4618.5" y="2415" width="210" height="80" as="geometry" />
        </mxCell>
        <mxCell id="pIqjqkyUgT4Ita8mCVpo-407" value="&lt;div style=&quot;font-size: 25px;&quot;&gt;Director&lt;/div&gt;" style="text;html=1;align=center;verticalAlign=middle;whiteSpace=wrap;rounded=0;" vertex="1" parent="1">
          <mxGeometry x="4238.5" y="2425" width="160" height="50" as="geometry" />
        </mxCell>
        <mxCell id="pIqjqkyUgT4Ita8mCVpo-408" value="&lt;font style=&quot;font-size: 25px;&quot;&gt;Email&lt;/font&gt;" style="text;html=1;align=center;verticalAlign=middle;whiteSpace=wrap;rounded=0;" vertex="1" parent="1">
          <mxGeometry x="4030" y="2425" width="160" height="50" as="geometry" />
        </mxCell>
        <mxCell id="pIqjqkyUgT4Ita8mCVpo-409" value="&lt;font style=&quot;font-size: 25px;&quot;&gt;Contact Number&lt;/font&gt;" style="text;html=1;align=center;verticalAlign=middle;whiteSpace=wrap;rounded=0;" vertex="1" parent="1">
          <mxGeometry x="3748.5" y="2420" width="200" height="50" as="geometry" />
        </mxCell>
        <mxCell id="pIqjqkyUgT4Ita8mCVpo-410" value="&lt;font style=&quot;font-size: 25px;&quot;&gt;Address&lt;/font&gt;" style="text;html=1;align=center;verticalAlign=middle;whiteSpace=wrap;rounded=0;" vertex="1" parent="1">
          <mxGeometry x="3530" y="2420" width="160" height="50" as="geometry" />
        </mxCell>
        <mxCell id="pIqjqkyUgT4Ita8mCVpo-411" value="&lt;font style=&quot;font-size: 25px;&quot;&gt;Company Name&lt;/font&gt;" style="text;html=1;align=center;verticalAlign=middle;whiteSpace=wrap;rounded=0;" vertex="1" parent="1">
          <mxGeometry x="3260" y="2425" width="200" height="50" as="geometry" />
        </mxCell>
        <mxCell id="pIqjqkyUgT4Ita8mCVpo-412" value="&lt;font style=&quot;font-size: 25px;&quot;&gt;Insert&lt;/font&gt;" style="strokeWidth=1;shadow=0;dashed=0;align=center;html=1;shape=mxgraph.mockup.buttons.button;strokeColor=#666666;fontColor=#ffffff;mainText=;buttonStyle=round;fontSize=17;fontStyle=1;fillColor=#008cff;whiteSpace=wrap;" vertex="1" parent="1">
          <mxGeometry x="4618.5" y="2325" width="210" height="55" as="geometry" />
        </mxCell>
        <mxCell id="pIqjqkyUgT4Ita8mCVpo-413" value="&lt;div style=&quot;font-size: 25px;&quot;&gt;Application Deadline&lt;/div&gt;" style="text;html=1;align=center;verticalAlign=middle;whiteSpace=wrap;rounded=0;" vertex="1" parent="1">
          <mxGeometry x="6710" y="632.5" width="240" height="50" as="geometry" />
        </mxCell>
        <mxCell id="pIqjqkyUgT4Ita8mCVpo-416" value="&lt;div style=&quot;font-size: 25px;&quot;&gt;No. of Internships&lt;/div&gt;" style="text;html=1;align=center;verticalAlign=middle;whiteSpace=wrap;rounded=0;" vertex="1" parent="1">
          <mxGeometry x="4398.5" y="2430" width="181.5" height="50" as="geometry" />
        </mxCell>
        <mxCell id="PTo7LQ85H9sYXjNCi2T0-1" value="" style="rounded=0;whiteSpace=wrap;html=1;" vertex="1" parent="1">
          <mxGeometry x="5490" y="2368" width="1600" height="877" as="geometry" />
        </mxCell>
        <mxCell id="PTo7LQ85H9sYXjNCi2T0-2" value="" style="shape=ext;double=1;rounded=0;whiteSpace=wrap;html=1;" vertex="1" parent="1">
          <mxGeometry x="5190" y="2016" width="1990" height="1304" as="geometry" />
        </mxCell>
        <mxCell id="PTo7LQ85H9sYXjNCi2T0-3" value="" style="shape=ext;double=1;rounded=0;whiteSpace=wrap;html=1;" vertex="1" parent="1">
          <mxGeometry x="5190" y="2015" width="1990" height="120" as="geometry" />
        </mxCell>
        <mxCell id="PTo7LQ85H9sYXjNCi2T0-4" value="" style="ellipse;shape=doubleEllipse;whiteSpace=wrap;html=1;aspect=fixed;" vertex="1" parent="1">
          <mxGeometry x="5237" y="2040" width="80" height="80" as="geometry" />
        </mxCell>
        <mxCell id="PTo7LQ85H9sYXjNCi2T0-5" value="" style="rounded=1;whiteSpace=wrap;html=1;" vertex="1" parent="1">
          <mxGeometry x="6700" y="2045" width="70" height="45" as="geometry" />
        </mxCell>
        <mxCell id="PTo7LQ85H9sYXjNCi2T0-6" value="" style="rounded=1;whiteSpace=wrap;html=1;" vertex="1" parent="1">
          <mxGeometry x="6860" y="2045" width="60" height="45" as="geometry" />
        </mxCell>
        <mxCell id="PTo7LQ85H9sYXjNCi2T0-7" value="" style="whiteSpace=wrap;html=1;aspect=fixed;verticalLabelPosition=bottom;shadow=0;dashed=0;verticalAlign=top;strokeWidth=1;shape=mxgraph.mockup.containers.userMale;strokeColor=#666666;strokeColor2=#008cff;" vertex="1" parent="1">
          <mxGeometry x="7060" y="2040" width="80" height="80" as="geometry" />
        </mxCell>
        <mxCell id="PTo7LQ85H9sYXjNCi2T0-8" value="" style="shape=triangle;direction=south;fillColor=#ffffff;strokeColor=none;perimeter=none;" vertex="1" parent="1">
          <mxGeometry x="7233" y="2092.5" width="10" height="5" as="geometry" />
        </mxCell>
        <mxCell id="PTo7LQ85H9sYXjNCi2T0-9" value="" style="rounded=0;whiteSpace=wrap;html=1;" vertex="1" parent="1">
          <mxGeometry x="5190" y="2135" width="270" height="1185" as="geometry" />
        </mxCell>
        <mxCell id="PTo7LQ85H9sYXjNCi2T0-10" value="&#xa;&lt;span style=&quot;color: rgb(0, 0, 0); font-family: Helvetica; font-size: 25px; font-style: normal; font-variant-ligatures: normal; font-variant-caps: normal; font-weight: 400; letter-spacing: normal; orphans: 2; text-align: center; text-indent: 0px; text-transform: none; widows: 2; word-spacing: 0px; -webkit-text-stroke-width: 0px; white-space: normal; background-color: rgb(251, 251, 251); text-decoration-thickness: initial; text-decoration-style: initial; text-decoration-color: initial; display: inline !important; float: none;&quot;&gt;Profile&lt;/span&gt;&#xa;&#xa;" style="text;html=1;align=center;verticalAlign=middle;whiteSpace=wrap;rounded=0;" vertex="1" parent="1">
          <mxGeometry x="5245" y="2210" width="160" height="50" as="geometry" />
        </mxCell>
        <mxCell id="PTo7LQ85H9sYXjNCi2T0-11" value="&lt;font style=&quot;font-size: 25px;&quot;&gt;Internship&lt;/font&gt;" style="text;html=1;align=center;verticalAlign=middle;whiteSpace=wrap;rounded=0;" vertex="1" parent="1">
          <mxGeometry x="5260" y="2310" width="130" height="50" as="geometry" />
        </mxCell>
        <mxCell id="PTo7LQ85H9sYXjNCi2T0-12" value="&lt;font style=&quot;font-size: 25px;&quot;&gt;My Application&lt;/font&gt;" style="text;html=1;align=center;verticalAlign=middle;whiteSpace=wrap;rounded=0;" vertex="1" parent="1">
          <mxGeometry x="5245" y="2415" width="165" height="50" as="geometry" />
        </mxCell>
        <mxCell id="PTo7LQ85H9sYXjNCi2T0-13" value="Search" style="strokeWidth=1;shadow=0;dashed=0;align=center;html=1;shape=mxgraph.mockup.forms.searchBox;strokeColor=#999999;mainText=;strokeColor2=#008cff;fontColor=#666666;fontSize=17;align=left;spacingLeft=3;whiteSpace=wrap;" vertex="1" parent="1">
          <mxGeometry x="5490" y="2195" width="250" height="55" as="geometry" />
        </mxCell>
        <mxCell id="PTo7LQ85H9sYXjNCi2T0-14" value="" style="html=1;shadow=0;dashed=0;shape=mxgraph.bootstrap.rrect;rSize=5;strokeColor=#DEE2E6;html=1;whiteSpace=wrap;fillColor=#ffffff;fontColor=#0085FC;" vertex="1" parent="1">
          <mxGeometry x="6250" y="3255" width="150" height="40" as="geometry" />
        </mxCell>
        <mxCell id="PTo7LQ85H9sYXjNCi2T0-15" value="&lt;&lt;" style="strokeColor=inherit;fillColor=inherit;gradientColor=inherit;fontColor=inherit;html=1;shadow=0;dashed=0;shape=mxgraph.bootstrap.leftButton;rSize=5;perimeter=none;whiteSpace=wrap;resizeHeight=1;fontSize=14;" vertex="1" parent="PTo7LQ85H9sYXjNCi2T0-14">
          <mxGeometry width="30" height="40" relative="1" as="geometry" />
        </mxCell>
        <mxCell id="PTo7LQ85H9sYXjNCi2T0-16" value="1" style="strokeColor=inherit;fillColor=inherit;gradientColor=inherit;fontColor=inherit;html=1;shadow=0;dashed=0;perimeter=none;whiteSpace=wrap;resizeHeight=1;fontSize=14;" vertex="1" parent="PTo7LQ85H9sYXjNCi2T0-14">
          <mxGeometry width="30" height="40" relative="1" as="geometry">
            <mxPoint x="30" as="offset" />
          </mxGeometry>
        </mxCell>
        <mxCell id="PTo7LQ85H9sYXjNCi2T0-17" value="2" style="strokeColor=inherit;fillColor=inherit;gradientColor=inherit;fontColor=inherit;html=1;shadow=0;dashed=0;perimeter=none;whiteSpace=wrap;resizeHeight=1;fontSize=14;" vertex="1" parent="PTo7LQ85H9sYXjNCi2T0-14">
          <mxGeometry width="30" height="40" relative="1" as="geometry">
            <mxPoint x="60" as="offset" />
          </mxGeometry>
        </mxCell>
        <mxCell id="PTo7LQ85H9sYXjNCi2T0-18" value="3" style="strokeColor=inherit;fillColor=inherit;gradientColor=inherit;fontColor=inherit;html=1;shadow=0;dashed=0;perimeter=none;whiteSpace=wrap;resizeHeight=1;fontSize=14;" vertex="1" parent="PTo7LQ85H9sYXjNCi2T0-14">
          <mxGeometry width="30" height="40" relative="1" as="geometry">
            <mxPoint x="90" as="offset" />
          </mxGeometry>
        </mxCell>
        <mxCell id="PTo7LQ85H9sYXjNCi2T0-19" value="&gt;&gt;" style="strokeColor=inherit;fillColor=inherit;gradientColor=inherit;fontColor=inherit;html=1;shadow=0;dashed=0;shape=mxgraph.bootstrap.rightButton;rSize=5;perimeter=none;whiteSpace=wrap;resizeHeight=1;fontSize=14;" vertex="1" parent="PTo7LQ85H9sYXjNCi2T0-14">
          <mxGeometry x="1" width="30" height="40" relative="1" as="geometry">
            <mxPoint x="-30" as="offset" />
          </mxGeometry>
        </mxCell>
        <mxCell id="PTo7LQ85H9sYXjNCi2T0-20" value="&lt;font style=&quot;font-size: 25px;&quot;&gt;Internship&lt;/font&gt;" style="text;html=1;align=center;verticalAlign=middle;whiteSpace=wrap;rounded=0;" vertex="1" parent="1">
          <mxGeometry x="6230" y="2197.5" width="160" height="50" as="geometry" />
        </mxCell>
        <mxCell id="PTo7LQ85H9sYXjNCi2T0-21" value="&lt;span style=&quot;font-size: 25px;&quot;&gt;update/Delete&lt;/span&gt;&lt;div&gt;&lt;span style=&quot;font-size: 25px;&quot;&gt;&lt;br&gt;&lt;/span&gt;&lt;/div&gt;" style="strokeWidth=1;shadow=0;dashed=0;align=center;html=1;shape=mxgraph.mockup.buttons.button;strokeColor=#82b366;mainText=;buttonStyle=round;fontSize=17;fontStyle=1;fillColor=#d5e8d4;whiteSpace=wrap;" vertex="1" parent="1">
          <mxGeometry x="6920" y="2400" width="210" height="80" as="geometry" />
        </mxCell>
        <mxCell id="PTo7LQ85H9sYXjNCi2T0-22" value="&lt;div style=&quot;font-size: 25px;&quot;&gt;End-Date&lt;/div&gt;" style="text;html=1;align=center;verticalAlign=middle;whiteSpace=wrap;rounded=0;" vertex="1" parent="1">
          <mxGeometry x="6540" y="2410" width="160" height="50" as="geometry" />
        </mxCell>
        <mxCell id="PTo7LQ85H9sYXjNCi2T0-23" value="&lt;font style=&quot;font-size: 25px;&quot;&gt;Start-Date&lt;/font&gt;" style="text;html=1;align=center;verticalAlign=middle;whiteSpace=wrap;rounded=0;" vertex="1" parent="1">
          <mxGeometry x="6331.5" y="2410" width="160" height="50" as="geometry" />
        </mxCell>
        <mxCell id="PTo7LQ85H9sYXjNCi2T0-24" value="&lt;font style=&quot;font-size: 25px;&quot;&gt;Description&lt;/font&gt;" style="text;html=1;align=center;verticalAlign=middle;whiteSpace=wrap;rounded=0;" vertex="1" parent="1">
          <mxGeometry x="6050" y="2405" width="200" height="50" as="geometry" />
        </mxCell>
        <mxCell id="PTo7LQ85H9sYXjNCi2T0-25" value="&lt;font style=&quot;font-size: 25px;&quot;&gt;Title&lt;/font&gt;" style="text;html=1;align=center;verticalAlign=middle;whiteSpace=wrap;rounded=0;" vertex="1" parent="1">
          <mxGeometry x="5831.5" y="2405" width="160" height="50" as="geometry" />
        </mxCell>
        <mxCell id="PTo7LQ85H9sYXjNCi2T0-26" value="&lt;font style=&quot;font-size: 25px;&quot;&gt;Company Name&lt;/font&gt;" style="text;html=1;align=center;verticalAlign=middle;whiteSpace=wrap;rounded=0;" vertex="1" parent="1">
          <mxGeometry x="5561.5" y="2410" width="200" height="50" as="geometry" />
        </mxCell>
        <mxCell id="PTo7LQ85H9sYXjNCi2T0-27" value="&lt;font style=&quot;font-size: 25px;&quot;&gt;Insert&lt;/font&gt;" style="strokeWidth=1;shadow=0;dashed=0;align=center;html=1;shape=mxgraph.mockup.buttons.button;strokeColor=#666666;fontColor=#ffffff;mainText=;buttonStyle=round;fontSize=17;fontStyle=1;fillColor=#008cff;whiteSpace=wrap;" vertex="1" parent="1">
          <mxGeometry x="6920" y="2310" width="210" height="55" as="geometry" />
        </mxCell>
        <mxCell id="PTo7LQ85H9sYXjNCi2T0-28" value="&lt;div style=&quot;font-size: 25px;&quot;&gt;Set Application Deadline&lt;/div&gt;" style="text;html=1;align=center;verticalAlign=middle;whiteSpace=wrap;rounded=0;fillColor=#f8cecc;strokeColor=#b85450;" vertex="1" parent="1">
          <mxGeometry x="6700" y="2415" width="181.5" height="50" as="geometry" />
        </mxCell>
        <mxCell id="PTo7LQ85H9sYXjNCi2T0-29" value="" style="rounded=0;whiteSpace=wrap;html=1;" vertex="1" parent="1">
          <mxGeometry x="7233" y="2441" width="408" height="430" as="geometry" />
        </mxCell>
        <mxCell id="PTo7LQ85H9sYXjNCi2T0-30" value="&lt;font style=&quot;font-size: 25px;&quot;&gt;Set Date&lt;/font&gt;" style="text;html=1;align=center;verticalAlign=middle;whiteSpace=wrap;rounded=0;" vertex="1" parent="1">
          <mxGeometry x="7234" y="2441" width="127" height="30" as="geometry" />
        </mxCell>
        <mxCell id="PTo7LQ85H9sYXjNCi2T0-31" value="" style="strokeWidth=1;shadow=0;dashed=0;align=center;html=1;shape=mxgraph.mockup.forms.rrect;rSize=5;strokeColor=#999999;fillColor=#ffffff;" vertex="1" parent="1">
          <mxGeometry x="7321" y="2511" width="230" height="250" as="geometry" />
        </mxCell>
        <mxCell id="PTo7LQ85H9sYXjNCi2T0-32" value="October 2014" style="strokeWidth=1;shadow=0;dashed=0;align=center;html=1;shape=mxgraph.mockup.forms.anchor;fontColor=#999999;" vertex="1" parent="PTo7LQ85H9sYXjNCi2T0-31">
          <mxGeometry x="43.125" y="11.428571428571429" width="143.75" height="28.571428571428573" as="geometry" />
        </mxCell>
        <mxCell id="PTo7LQ85H9sYXjNCi2T0-33" value="&lt;" style="strokeWidth=1;shadow=0;dashed=0;align=center;html=1;shape=mxgraph.mockup.forms.rrect;rSize=4;strokeColor=#999999;fontColor=#008cff;fontSize=19;fontStyle=1;" vertex="1" parent="PTo7LQ85H9sYXjNCi2T0-31">
          <mxGeometry x="11.5" y="11.428571428571429" width="35.9375" height="28.571428571428573" as="geometry" />
        </mxCell>
        <mxCell id="PTo7LQ85H9sYXjNCi2T0-34" value="&gt;" style="strokeWidth=1;shadow=0;dashed=0;align=center;html=1;shape=mxgraph.mockup.forms.rrect;rSize=4;strokeColor=#999999;fontColor=#008cff;fontSize=19;fontStyle=1;" vertex="1" parent="PTo7LQ85H9sYXjNCi2T0-31">
          <mxGeometry x="182.5625" y="11.428571428571429" width="35.9375" height="28.571428571428573" as="geometry" />
        </mxCell>
        <mxCell id="PTo7LQ85H9sYXjNCi2T0-35" value="Mo" style="strokeWidth=1;shadow=0;dashed=0;align=center;html=1;shape=mxgraph.mockup.forms.anchor;fontColor=#999999;" vertex="1" parent="PTo7LQ85H9sYXjNCi2T0-31">
          <mxGeometry x="14.375" y="40" width="28.75" height="28.571428571428573" as="geometry" />
        </mxCell>
        <mxCell id="PTo7LQ85H9sYXjNCi2T0-36" value="Tu" style="strokeWidth=1;shadow=0;dashed=0;align=center;html=1;shape=mxgraph.mockup.forms.anchor;fontColor=#999999;" vertex="1" parent="PTo7LQ85H9sYXjNCi2T0-31">
          <mxGeometry x="43.125" y="40" width="28.75" height="28.571428571428573" as="geometry" />
        </mxCell>
        <mxCell id="PTo7LQ85H9sYXjNCi2T0-37" value="We" style="strokeWidth=1;shadow=0;dashed=0;align=center;html=1;shape=mxgraph.mockup.forms.anchor;fontColor=#999999;" vertex="1" parent="PTo7LQ85H9sYXjNCi2T0-31">
          <mxGeometry x="71.875" y="40" width="28.75" height="28.571428571428573" as="geometry" />
        </mxCell>
        <mxCell id="PTo7LQ85H9sYXjNCi2T0-38" value="Th" style="strokeWidth=1;shadow=0;dashed=0;align=center;html=1;shape=mxgraph.mockup.forms.anchor;fontColor=#999999;" vertex="1" parent="PTo7LQ85H9sYXjNCi2T0-31">
          <mxGeometry x="100.625" y="40" width="28.75" height="28.571428571428573" as="geometry" />
        </mxCell>
        <mxCell id="PTo7LQ85H9sYXjNCi2T0-39" value="Fr" style="strokeWidth=1;shadow=0;dashed=0;align=center;html=1;shape=mxgraph.mockup.forms.anchor;fontColor=#999999;" vertex="1" parent="PTo7LQ85H9sYXjNCi2T0-31">
          <mxGeometry x="129.375" y="40" width="28.75" height="28.571428571428573" as="geometry" />
        </mxCell>
        <mxCell id="PTo7LQ85H9sYXjNCi2T0-40" value="Sa" style="strokeWidth=1;shadow=0;dashed=0;align=center;html=1;shape=mxgraph.mockup.forms.anchor;fontColor=#999999;" vertex="1" parent="PTo7LQ85H9sYXjNCi2T0-31">
          <mxGeometry x="158.125" y="40" width="28.75" height="28.571428571428573" as="geometry" />
        </mxCell>
        <mxCell id="PTo7LQ85H9sYXjNCi2T0-41" value="Su" style="strokeWidth=1;shadow=0;dashed=0;align=center;html=1;shape=mxgraph.mockup.forms.anchor;fontColor=#999999;" vertex="1" parent="PTo7LQ85H9sYXjNCi2T0-31">
          <mxGeometry x="186.875" y="40" width="28.75" height="28.571428571428573" as="geometry" />
        </mxCell>
        <mxCell id="PTo7LQ85H9sYXjNCi2T0-42" value="1" style="strokeWidth=1;shadow=0;dashed=0;align=center;html=1;shape=mxgraph.mockup.forms.rrect;rSize=0;strokeColor=#999999;fontColor=#999999;" vertex="1" parent="PTo7LQ85H9sYXjNCi2T0-31">
          <mxGeometry x="14.375" y="68.57142857142857" width="28.75" height="28.571428571428573" as="geometry" />
        </mxCell>
        <mxCell id="PTo7LQ85H9sYXjNCi2T0-43" value="2" style="strokeWidth=1;shadow=0;dashed=0;align=center;html=1;shape=mxgraph.mockup.forms.rrect;rSize=0;strokeColor=#999999;fontColor=#999999;" vertex="1" parent="PTo7LQ85H9sYXjNCi2T0-31">
          <mxGeometry x="43.125" y="68.57142857142857" width="28.75" height="28.571428571428573" as="geometry" />
        </mxCell>
        <mxCell id="PTo7LQ85H9sYXjNCi2T0-44" value="3" style="strokeWidth=1;shadow=0;dashed=0;align=center;html=1;shape=mxgraph.mockup.forms.rrect;rSize=0;strokeColor=#999999;fontColor=#999999;" vertex="1" parent="PTo7LQ85H9sYXjNCi2T0-31">
          <mxGeometry x="71.875" y="68.57142857142857" width="28.75" height="28.571428571428573" as="geometry" />
        </mxCell>
        <mxCell id="PTo7LQ85H9sYXjNCi2T0-45" value="4" style="strokeWidth=1;shadow=0;dashed=0;align=center;html=1;shape=mxgraph.mockup.forms.rrect;rSize=0;strokeColor=#999999;fontColor=#999999;" vertex="1" parent="PTo7LQ85H9sYXjNCi2T0-31">
          <mxGeometry x="100.625" y="68.57142857142857" width="28.75" height="28.571428571428573" as="geometry" />
        </mxCell>
        <mxCell id="PTo7LQ85H9sYXjNCi2T0-46" value="5" style="strokeWidth=1;shadow=0;dashed=0;align=center;html=1;shape=mxgraph.mockup.forms.rrect;rSize=0;strokeColor=#999999;fontColor=#999999;" vertex="1" parent="PTo7LQ85H9sYXjNCi2T0-31">
          <mxGeometry x="129.375" y="68.57142857142857" width="28.75" height="28.571428571428573" as="geometry" />
        </mxCell>
        <mxCell id="PTo7LQ85H9sYXjNCi2T0-47" value="6" style="strokeWidth=1;shadow=0;dashed=0;align=center;html=1;shape=mxgraph.mockup.forms.rrect;rSize=0;strokeColor=#999999;fontColor=#999999;" vertex="1" parent="PTo7LQ85H9sYXjNCi2T0-31">
          <mxGeometry x="158.125" y="68.57142857142857" width="28.75" height="28.571428571428573" as="geometry" />
        </mxCell>
        <mxCell id="PTo7LQ85H9sYXjNCi2T0-48" value="7" style="strokeWidth=1;shadow=0;dashed=0;align=center;html=1;shape=mxgraph.mockup.forms.rrect;rSize=0;strokeColor=#999999;fontColor=#999999;" vertex="1" parent="PTo7LQ85H9sYXjNCi2T0-31">
          <mxGeometry x="186.875" y="68.57142857142857" width="28.75" height="28.571428571428573" as="geometry" />
        </mxCell>
        <mxCell id="PTo7LQ85H9sYXjNCi2T0-49" value="8" style="strokeWidth=1;shadow=0;dashed=0;align=center;html=1;shape=mxgraph.mockup.forms.rrect;rSize=0;strokeColor=#999999;fontColor=#999999;" vertex="1" parent="PTo7LQ85H9sYXjNCi2T0-31">
          <mxGeometry x="14.375" y="97.14285714285714" width="28.75" height="28.571428571428573" as="geometry" />
        </mxCell>
        <mxCell id="PTo7LQ85H9sYXjNCi2T0-50" value="9" style="strokeWidth=1;shadow=0;dashed=0;align=center;html=1;shape=mxgraph.mockup.forms.rrect;rSize=0;strokeColor=#999999;fontColor=#999999;" vertex="1" parent="PTo7LQ85H9sYXjNCi2T0-31">
          <mxGeometry x="43.125" y="97.14285714285714" width="28.75" height="28.571428571428573" as="geometry" />
        </mxCell>
        <mxCell id="PTo7LQ85H9sYXjNCi2T0-51" value="10" style="strokeWidth=1;shadow=0;dashed=0;align=center;html=1;shape=mxgraph.mockup.forms.rrect;rSize=0;strokeColor=#999999;fontColor=#999999;" vertex="1" parent="PTo7LQ85H9sYXjNCi2T0-31">
          <mxGeometry x="71.875" y="97.14285714285714" width="28.75" height="28.571428571428573" as="geometry" />
        </mxCell>
        <mxCell id="PTo7LQ85H9sYXjNCi2T0-52" value="11" style="strokeWidth=1;shadow=0;dashed=0;align=center;html=1;shape=mxgraph.mockup.forms.rrect;rSize=0;strokeColor=#999999;fontColor=#999999;" vertex="1" parent="PTo7LQ85H9sYXjNCi2T0-31">
          <mxGeometry x="100.625" y="97.14285714285714" width="28.75" height="28.571428571428573" as="geometry" />
        </mxCell>
        <mxCell id="PTo7LQ85H9sYXjNCi2T0-53" value="12" style="strokeWidth=1;shadow=0;dashed=0;align=center;html=1;shape=mxgraph.mockup.forms.rrect;rSize=0;strokeColor=#999999;fontColor=#999999;" vertex="1" parent="PTo7LQ85H9sYXjNCi2T0-31">
          <mxGeometry x="129.375" y="97.14285714285714" width="28.75" height="28.571428571428573" as="geometry" />
        </mxCell>
        <mxCell id="PTo7LQ85H9sYXjNCi2T0-54" value="13" style="strokeWidth=1;shadow=0;dashed=0;align=center;html=1;shape=mxgraph.mockup.forms.rrect;rSize=0;strokeColor=#999999;fontColor=#999999;" vertex="1" parent="PTo7LQ85H9sYXjNCi2T0-31">
          <mxGeometry x="158.125" y="97.14285714285714" width="28.75" height="28.571428571428573" as="geometry" />
        </mxCell>
        <mxCell id="PTo7LQ85H9sYXjNCi2T0-55" value="14" style="strokeWidth=1;shadow=0;dashed=0;align=center;html=1;shape=mxgraph.mockup.forms.rrect;rSize=0;strokeColor=#999999;fontColor=#999999;" vertex="1" parent="PTo7LQ85H9sYXjNCi2T0-31">
          <mxGeometry x="186.875" y="97.14285714285714" width="28.75" height="28.571428571428573" as="geometry" />
        </mxCell>
        <mxCell id="PTo7LQ85H9sYXjNCi2T0-56" value="15" style="strokeWidth=1;shadow=0;dashed=0;align=center;html=1;shape=mxgraph.mockup.forms.rrect;rSize=0;strokeColor=#999999;fontColor=#999999;" vertex="1" parent="PTo7LQ85H9sYXjNCi2T0-31">
          <mxGeometry x="14.375" y="125.71428571428572" width="28.75" height="28.571428571428573" as="geometry" />
        </mxCell>
        <mxCell id="PTo7LQ85H9sYXjNCi2T0-57" value="16" style="strokeWidth=1;shadow=0;dashed=0;align=center;html=1;shape=mxgraph.mockup.forms.rrect;rSize=0;strokeColor=#999999;fontColor=#999999;" vertex="1" parent="PTo7LQ85H9sYXjNCi2T0-31">
          <mxGeometry x="43.125" y="125.71428571428572" width="28.75" height="28.571428571428573" as="geometry" />
        </mxCell>
        <mxCell id="PTo7LQ85H9sYXjNCi2T0-58" value="17" style="strokeWidth=1;shadow=0;dashed=0;align=center;html=1;shape=mxgraph.mockup.forms.rrect;rSize=0;strokeColor=#999999;fontColor=#999999;" vertex="1" parent="PTo7LQ85H9sYXjNCi2T0-31">
          <mxGeometry x="71.875" y="125.71428571428572" width="28.75" height="28.571428571428573" as="geometry" />
        </mxCell>
        <mxCell id="PTo7LQ85H9sYXjNCi2T0-59" value="18" style="strokeWidth=1;shadow=0;dashed=0;align=center;html=1;shape=mxgraph.mockup.forms.rrect;rSize=0;strokeColor=#999999;fontColor=#999999;" vertex="1" parent="PTo7LQ85H9sYXjNCi2T0-31">
          <mxGeometry x="100.625" y="125.71428571428572" width="28.75" height="28.571428571428573" as="geometry" />
        </mxCell>
        <mxCell id="PTo7LQ85H9sYXjNCi2T0-60" value="19" style="strokeWidth=1;shadow=0;dashed=0;align=center;html=1;shape=mxgraph.mockup.forms.rrect;rSize=0;strokeColor=#999999;fontColor=#999999;" vertex="1" parent="PTo7LQ85H9sYXjNCi2T0-31">
          <mxGeometry x="129.375" y="125.71428571428572" width="28.75" height="28.571428571428573" as="geometry" />
        </mxCell>
        <mxCell id="PTo7LQ85H9sYXjNCi2T0-61" value="20" style="strokeWidth=1;shadow=0;dashed=0;align=center;html=1;shape=mxgraph.mockup.forms.rrect;rSize=0;strokeColor=#999999;fontColor=#999999;" vertex="1" parent="PTo7LQ85H9sYXjNCi2T0-31">
          <mxGeometry x="158.125" y="125.71428571428572" width="28.75" height="28.571428571428573" as="geometry" />
        </mxCell>
        <mxCell id="PTo7LQ85H9sYXjNCi2T0-62" value="21" style="strokeWidth=1;shadow=0;dashed=0;align=center;html=1;shape=mxgraph.mockup.forms.rrect;rSize=0;strokeColor=#999999;fontColor=#999999;" vertex="1" parent="PTo7LQ85H9sYXjNCi2T0-31">
          <mxGeometry x="186.875" y="125.71428571428572" width="28.75" height="28.571428571428573" as="geometry" />
        </mxCell>
        <mxCell id="PTo7LQ85H9sYXjNCi2T0-63" value="22" style="strokeWidth=1;shadow=0;dashed=0;align=center;html=1;shape=mxgraph.mockup.forms.rrect;rSize=0;strokeColor=#999999;fontColor=#999999;" vertex="1" parent="PTo7LQ85H9sYXjNCi2T0-31">
          <mxGeometry x="14.375" y="154.28571428571428" width="28.75" height="28.571428571428573" as="geometry" />
        </mxCell>
        <mxCell id="PTo7LQ85H9sYXjNCi2T0-64" value="23" style="strokeWidth=1;shadow=0;dashed=0;align=center;html=1;shape=mxgraph.mockup.forms.rrect;rSize=0;strokeColor=#999999;fontColor=#999999;" vertex="1" parent="PTo7LQ85H9sYXjNCi2T0-31">
          <mxGeometry x="43.125" y="154.28571428571428" width="28.75" height="28.571428571428573" as="geometry" />
        </mxCell>
        <mxCell id="PTo7LQ85H9sYXjNCi2T0-65" value="25" style="strokeWidth=1;shadow=0;dashed=0;align=center;html=1;shape=mxgraph.mockup.forms.rrect;rSize=0;strokeColor=#999999;fontColor=#999999;" vertex="1" parent="PTo7LQ85H9sYXjNCi2T0-31">
          <mxGeometry x="100.625" y="154.28571428571428" width="28.75" height="28.571428571428573" as="geometry" />
        </mxCell>
        <mxCell id="PTo7LQ85H9sYXjNCi2T0-66" value="26" style="strokeWidth=1;shadow=0;dashed=0;align=center;html=1;shape=mxgraph.mockup.forms.rrect;rSize=0;strokeColor=#999999;fontColor=#999999;" vertex="1" parent="PTo7LQ85H9sYXjNCi2T0-31">
          <mxGeometry x="129.375" y="154.28571428571428" width="28.75" height="28.571428571428573" as="geometry" />
        </mxCell>
        <mxCell id="PTo7LQ85H9sYXjNCi2T0-67" value="27" style="strokeWidth=1;shadow=0;dashed=0;align=center;html=1;shape=mxgraph.mockup.forms.rrect;rSize=0;strokeColor=#999999;fontColor=#999999;" vertex="1" parent="PTo7LQ85H9sYXjNCi2T0-31">
          <mxGeometry x="158.125" y="154.28571428571428" width="28.75" height="28.571428571428573" as="geometry" />
        </mxCell>
        <mxCell id="PTo7LQ85H9sYXjNCi2T0-68" value="28" style="strokeWidth=1;shadow=0;dashed=0;align=center;html=1;shape=mxgraph.mockup.forms.rrect;rSize=0;strokeColor=#999999;fontColor=#999999;" vertex="1" parent="PTo7LQ85H9sYXjNCi2T0-31">
          <mxGeometry x="186.875" y="154.28571428571428" width="28.75" height="28.571428571428573" as="geometry" />
        </mxCell>
        <mxCell id="PTo7LQ85H9sYXjNCi2T0-69" value="29" style="strokeWidth=1;shadow=0;dashed=0;align=center;html=1;shape=mxgraph.mockup.forms.rrect;rSize=0;strokeColor=#999999;fontColor=#999999;" vertex="1" parent="PTo7LQ85H9sYXjNCi2T0-31">
          <mxGeometry x="14.375" y="182.85714285714286" width="28.75" height="28.571428571428573" as="geometry" />
        </mxCell>
        <mxCell id="PTo7LQ85H9sYXjNCi2T0-70" value="30" style="strokeWidth=1;shadow=0;dashed=0;align=center;html=1;shape=mxgraph.mockup.forms.rrect;rSize=0;strokeColor=#999999;fontColor=#999999;" vertex="1" parent="PTo7LQ85H9sYXjNCi2T0-31">
          <mxGeometry x="43.125" y="182.85714285714286" width="28.75" height="28.571428571428573" as="geometry" />
        </mxCell>
        <mxCell id="PTo7LQ85H9sYXjNCi2T0-71" value="31" style="strokeWidth=1;shadow=0;dashed=0;align=center;html=1;shape=mxgraph.mockup.forms.rrect;rSize=0;strokeColor=#999999;fontColor=#999999;" vertex="1" parent="PTo7LQ85H9sYXjNCi2T0-31">
          <mxGeometry x="71.875" y="182.85714285714286" width="28.75" height="28.571428571428573" as="geometry" />
        </mxCell>
        <mxCell id="PTo7LQ85H9sYXjNCi2T0-72" value="1" style="strokeWidth=1;shadow=0;dashed=0;align=center;html=1;shape=mxgraph.mockup.forms.rrect;rSize=0;strokeColor=#999999;fontColor=#999999;fillColor=#ddeeff;" vertex="1" parent="PTo7LQ85H9sYXjNCi2T0-31">
          <mxGeometry x="100.625" y="182.85714285714286" width="28.75" height="28.571428571428573" as="geometry" />
        </mxCell>
        <mxCell id="PTo7LQ85H9sYXjNCi2T0-73" value="2" style="strokeWidth=1;shadow=0;dashed=0;align=center;html=1;shape=mxgraph.mockup.forms.rrect;rSize=0;strokeColor=#999999;fontColor=#999999;fillColor=#ddeeff;" vertex="1" parent="PTo7LQ85H9sYXjNCi2T0-31">
          <mxGeometry x="129.375" y="182.85714285714286" width="28.75" height="28.571428571428573" as="geometry" />
        </mxCell>
        <mxCell id="PTo7LQ85H9sYXjNCi2T0-74" value="3" style="strokeWidth=1;shadow=0;dashed=0;align=center;html=1;shape=mxgraph.mockup.forms.rrect;rSize=0;strokeColor=#999999;fontColor=#999999;fillColor=#ddeeff;" vertex="1" parent="PTo7LQ85H9sYXjNCi2T0-31">
          <mxGeometry x="158.125" y="182.85714285714286" width="28.75" height="28.571428571428573" as="geometry" />
        </mxCell>
        <mxCell id="PTo7LQ85H9sYXjNCi2T0-75" value="4" style="strokeWidth=1;shadow=0;dashed=0;align=center;html=1;shape=mxgraph.mockup.forms.rrect;rSize=0;strokeColor=#999999;fontColor=#999999;fillColor=#ddeeff;" vertex="1" parent="PTo7LQ85H9sYXjNCi2T0-31">
          <mxGeometry x="186.875" y="182.85714285714286" width="28.75" height="28.571428571428573" as="geometry" />
        </mxCell>
        <mxCell id="PTo7LQ85H9sYXjNCi2T0-76" value="5" style="strokeWidth=1;shadow=0;dashed=0;align=center;html=1;shape=mxgraph.mockup.forms.rrect;rSize=0;strokeColor=#999999;fontColor=#999999;fillColor=#ddeeff;" vertex="1" parent="PTo7LQ85H9sYXjNCi2T0-31">
          <mxGeometry x="14.375" y="211.42857142857144" width="28.75" height="28.571428571428573" as="geometry" />
        </mxCell>
        <mxCell id="PTo7LQ85H9sYXjNCi2T0-77" value="6" style="strokeWidth=1;shadow=0;dashed=0;align=center;html=1;shape=mxgraph.mockup.forms.rrect;rSize=0;strokeColor=#999999;fontColor=#999999;fillColor=#ddeeff;" vertex="1" parent="PTo7LQ85H9sYXjNCi2T0-31">
          <mxGeometry x="43.125" y="211.42857142857144" width="28.75" height="28.571428571428573" as="geometry" />
        </mxCell>
        <mxCell id="PTo7LQ85H9sYXjNCi2T0-78" value="7" style="strokeWidth=1;shadow=0;dashed=0;align=center;html=1;shape=mxgraph.mockup.forms.rrect;rSize=0;strokeColor=#999999;fontColor=#999999;fillColor=#ddeeff;" vertex="1" parent="PTo7LQ85H9sYXjNCi2T0-31">
          <mxGeometry x="71.875" y="211.42857142857144" width="28.75" height="28.571428571428573" as="geometry" />
        </mxCell>
        <mxCell id="PTo7LQ85H9sYXjNCi2T0-79" value="8" style="strokeWidth=1;shadow=0;dashed=0;align=center;html=1;shape=mxgraph.mockup.forms.rrect;rSize=0;strokeColor=#999999;fontColor=#999999;fillColor=#ddeeff;" vertex="1" parent="PTo7LQ85H9sYXjNCi2T0-31">
          <mxGeometry x="100.625" y="211.42857142857144" width="28.75" height="28.571428571428573" as="geometry" />
        </mxCell>
        <mxCell id="PTo7LQ85H9sYXjNCi2T0-80" value="9" style="strokeWidth=1;shadow=0;dashed=0;align=center;html=1;shape=mxgraph.mockup.forms.rrect;rSize=0;strokeColor=#999999;fontColor=#999999;fillColor=#ddeeff;" vertex="1" parent="PTo7LQ85H9sYXjNCi2T0-31">
          <mxGeometry x="129.375" y="211.42857142857144" width="28.75" height="28.571428571428573" as="geometry" />
        </mxCell>
        <mxCell id="PTo7LQ85H9sYXjNCi2T0-81" value="10" style="strokeWidth=1;shadow=0;dashed=0;align=center;html=1;shape=mxgraph.mockup.forms.rrect;rSize=0;strokeColor=#999999;fontColor=#999999;fillColor=#ddeeff;" vertex="1" parent="PTo7LQ85H9sYXjNCi2T0-31">
          <mxGeometry x="158.125" y="211.42857142857144" width="28.75" height="28.571428571428573" as="geometry" />
        </mxCell>
        <mxCell id="PTo7LQ85H9sYXjNCi2T0-82" value="11" style="strokeWidth=1;shadow=0;dashed=0;align=center;html=1;shape=mxgraph.mockup.forms.rrect;rSize=0;strokeColor=#999999;fontColor=#999999;fillColor=#ddeeff;" vertex="1" parent="PTo7LQ85H9sYXjNCi2T0-31">
          <mxGeometry x="186.875" y="211.42857142857144" width="28.75" height="28.571428571428573" as="geometry" />
        </mxCell>
        <mxCell id="PTo7LQ85H9sYXjNCi2T0-83" value="24" style="strokeWidth=1;shadow=0;dashed=0;align=center;html=1;shape=mxgraph.mockup.forms.rrect;rSize=0;strokeColor=#ff0000;fontColor=#ffffff;strokeWidth=2;fillColor=#008cff;" vertex="1" parent="PTo7LQ85H9sYXjNCi2T0-31">
          <mxGeometry x="71.875" y="154.28571428571428" width="28.75" height="28.571428571428573" as="geometry" />
        </mxCell>
        <mxCell id="PTo7LQ85H9sYXjNCi2T0-84" value="&lt;font style=&quot;font-size: 25px;&quot;&gt;Confirm&lt;/font&gt;" style="strokeWidth=1;shadow=0;dashed=0;align=center;html=1;shape=mxgraph.mockup.buttons.button;strokeColor=#666666;fontColor=#ffffff;mainText=;buttonStyle=round;fontSize=17;fontStyle=1;fillColor=#008cff;whiteSpace=wrap;" vertex="1" parent="1">
          <mxGeometry x="7491" y="2801" width="150" height="50" as="geometry" />
        </mxCell>
        <mxCell id="PTo7LQ85H9sYXjNCi2T0-220" value="" style="shape=ext;double=1;rounded=0;whiteSpace=wrap;html=1;" vertex="1" parent="1">
          <mxGeometry x="7770" y="2040.5" width="1990" height="1280" as="geometry" />
        </mxCell>
        <mxCell id="PTo7LQ85H9sYXjNCi2T0-221" value="" style="shape=ext;double=1;rounded=0;whiteSpace=wrap;html=1;" vertex="1" parent="1">
          <mxGeometry x="7770" y="2015.5" width="1990" height="120" as="geometry" />
        </mxCell>
        <mxCell id="PTo7LQ85H9sYXjNCi2T0-222" value="" style="ellipse;shape=doubleEllipse;whiteSpace=wrap;html=1;aspect=fixed;" vertex="1" parent="1">
          <mxGeometry x="7817" y="2040.5" width="80" height="80" as="geometry" />
        </mxCell>
        <mxCell id="PTo7LQ85H9sYXjNCi2T0-223" value="" style="rounded=1;whiteSpace=wrap;html=1;" vertex="1" parent="1">
          <mxGeometry x="9280" y="2045.5" width="70" height="45" as="geometry" />
        </mxCell>
        <mxCell id="PTo7LQ85H9sYXjNCi2T0-224" value="" style="rounded=1;whiteSpace=wrap;html=1;" vertex="1" parent="1">
          <mxGeometry x="9440" y="2045.5" width="60" height="45" as="geometry" />
        </mxCell>
        <mxCell id="PTo7LQ85H9sYXjNCi2T0-225" value="" style="rounded=0;whiteSpace=wrap;html=1;" vertex="1" parent="1">
          <mxGeometry x="7770" y="2135.5" width="270" height="1185" as="geometry" />
        </mxCell>
        <mxCell id="PTo7LQ85H9sYXjNCi2T0-226" value="&#xa;&lt;span style=&quot;color: rgb(0, 0, 0); font-family: Helvetica; font-size: 25px; font-style: normal; font-variant-ligatures: normal; font-variant-caps: normal; font-weight: 400; letter-spacing: normal; orphans: 2; text-align: center; text-indent: 0px; text-transform: none; widows: 2; word-spacing: 0px; -webkit-text-stroke-width: 0px; white-space: normal; background-color: rgb(251, 251, 251); text-decoration-thickness: initial; text-decoration-style: initial; text-decoration-color: initial; display: inline !important; float: none;&quot;&gt;Profile&lt;/span&gt;&#xa;&#xa;" style="text;html=1;align=center;verticalAlign=middle;whiteSpace=wrap;rounded=0;" vertex="1" parent="1">
          <mxGeometry x="7825" y="2210.5" width="160" height="50" as="geometry" />
        </mxCell>
        <mxCell id="PTo7LQ85H9sYXjNCi2T0-227" value="" style="rounded=0;whiteSpace=wrap;html=1;" vertex="1" parent="1">
          <mxGeometry x="8100" y="2198" width="1570" height="1072.5" as="geometry" />
        </mxCell>
        <mxCell id="PTo7LQ85H9sYXjNCi2T0-228" value="" style="verticalLabelPosition=bottom;shadow=0;dashed=0;align=center;html=1;verticalAlign=top;strokeWidth=1;shape=mxgraph.mockup.containers.userMale;strokeColor=#666666;strokeColor2=#008cff;" vertex="1" parent="1">
          <mxGeometry x="9650" y="2034.25" width="80" height="82.5" as="geometry" />
        </mxCell>
        <mxCell id="PTo7LQ85H9sYXjNCi2T0-229" value="&lt;font style=&quot;font-size: 25px;&quot;&gt;Internship&lt;/font&gt;" style="text;html=1;align=center;verticalAlign=middle;whiteSpace=wrap;rounded=0;" vertex="1" parent="1">
          <mxGeometry x="7825" y="2308" width="160" height="50" as="geometry" />
        </mxCell>
        <mxCell id="PTo7LQ85H9sYXjNCi2T0-230" value="&lt;font style=&quot;font-size: 25px;&quot;&gt;My Application&lt;/font&gt;" style="text;html=1;align=center;verticalAlign=middle;whiteSpace=wrap;rounded=0;" vertex="1" parent="1">
          <mxGeometry x="7812.5" y="2408" width="185" height="50" as="geometry" />
        </mxCell>
        <mxCell id="PTo7LQ85H9sYXjNCi2T0-231" value="&lt;font style=&quot;font-size: 25px;&quot;&gt;List of Internship Applied&lt;/font&gt;" style="shape=ext;double=1;rounded=0;whiteSpace=wrap;html=1;" vertex="1" parent="1">
          <mxGeometry x="8130" y="2228" width="1500" height="80" as="geometry" />
        </mxCell>
        <mxCell id="PTo7LQ85H9sYXjNCi2T0-232" value="" style="shape=ext;double=1;rounded=0;whiteSpace=wrap;html=1;" vertex="1" parent="1">
          <mxGeometry x="8130" y="2385.5" width="1500" height="880" as="geometry" />
        </mxCell>
        <mxCell id="PTo7LQ85H9sYXjNCi2T0-233" value="&lt;font style=&quot;font-size: 25px;&quot;&gt;Update Status&lt;/font&gt;" style="rounded=0;whiteSpace=wrap;html=1;fillColor=#d5e8d4;strokeColor=#82b366;" vertex="1" parent="1">
          <mxGeometry x="9150" y="2415" width="411" height="60" as="geometry" />
        </mxCell>
        <mxCell id="PTo7LQ85H9sYXjNCi2T0-234" value="&lt;div style=&quot;font-size: 25px;&quot;&gt;Application-Id&lt;/div&gt;" style="text;html=1;align=center;verticalAlign=middle;whiteSpace=wrap;rounded=0;" vertex="1" parent="1">
          <mxGeometry x="8180" y="2405" width="160" height="50" as="geometry" />
        </mxCell>
        <mxCell id="PTo7LQ85H9sYXjNCi2T0-236" value="&lt;div style=&quot;font-size: 25px;&quot;&gt;student-Id&lt;/div&gt;" style="text;html=1;align=center;verticalAlign=middle;whiteSpace=wrap;rounded=0;" vertex="1" parent="1">
          <mxGeometry x="8430" y="2410" width="160" height="50" as="geometry" />
        </mxCell>
        <mxCell id="PTo7LQ85H9sYXjNCi2T0-237" value="&lt;div style=&quot;font-size: 25px;&quot;&gt;Internship-Id&lt;/div&gt;" style="text;html=1;align=center;verticalAlign=middle;whiteSpace=wrap;rounded=0;" vertex="1" parent="1">
          <mxGeometry x="8670" y="2410" width="160" height="50" as="geometry" />
        </mxCell>
        <mxCell id="PTo7LQ85H9sYXjNCi2T0-239" value="" style="rounded=0;whiteSpace=wrap;html=1;" vertex="1" parent="1">
          <mxGeometry x="9790" y="2410" width="408" height="120" as="geometry" />
        </mxCell>
        <mxCell id="PTo7LQ85H9sYXjNCi2T0-294" value="&lt;font style=&quot;font-size: 25px;&quot;&gt;Accept&lt;/font&gt;" style="strokeWidth=1;shadow=0;dashed=0;align=center;html=1;shape=mxgraph.mockup.buttons.button;strokeColor=#666666;fontColor=#ffffff;mainText=;buttonStyle=round;fontSize=17;fontStyle=1;fillColor=#008cff;whiteSpace=wrap;" vertex="1" parent="1">
          <mxGeometry x="9850" y="2455" width="150" height="50" as="geometry" />
        </mxCell>
        <mxCell id="PTo7LQ85H9sYXjNCi2T0-295" value="&lt;font style=&quot;font-size: 25px;&quot;&gt;Reject&lt;/font&gt;" style="strokeWidth=1;shadow=0;dashed=0;align=center;html=1;shape=mxgraph.mockup.buttons.button;strokeColor=#666666;fontColor=#ffffff;mainText=;buttonStyle=round;fontSize=17;fontStyle=1;fillColor=#008cff;whiteSpace=wrap;" vertex="1" parent="1">
          <mxGeometry x="10030" y="2455" width="150" height="50" as="geometry" />
        </mxCell>
        <mxCell id="PTo7LQ85H9sYXjNCi2T0-296" value="" style="rounded=0;whiteSpace=wrap;html=1;" vertex="1" parent="1">
          <mxGeometry x="160" y="1000" width="120" height="60" as="geometry" />
        </mxCell>
        <mxCell id="PTo7LQ85H9sYXjNCi2T0-297" value="&lt;font style=&quot;font-size: 25px;&quot;&gt;Student View&lt;/font&gt;" style="rounded=0;whiteSpace=wrap;html=1;" vertex="1" parent="1">
          <mxGeometry x="700" y="30" width="760" height="110" as="geometry" />
        </mxCell>
        <mxCell id="PTo7LQ85H9sYXjNCi2T0-298" value="&lt;font style=&quot;font-size: 25px;&quot;&gt;Dashboard&lt;/font&gt;" style="text;html=1;align=center;verticalAlign=middle;whiteSpace=wrap;rounded=0;" vertex="1" parent="1">
          <mxGeometry x="1480" y="1580" width="480" height="110" as="geometry" />
        </mxCell>
        <mxCell id="PTo7LQ85H9sYXjNCi2T0-299" value="&lt;font style=&quot;font-size: 25px;&quot;&gt;Profile Panel&lt;/font&gt;" style="text;html=1;align=center;verticalAlign=middle;whiteSpace=wrap;rounded=0;" vertex="1" parent="1">
          <mxGeometry x="3675" y="1580" width="480" height="110" as="geometry" />
        </mxCell>
        <mxCell id="PTo7LQ85H9sYXjNCi2T0-300" value="&lt;font style=&quot;font-size: 25px;&quot;&gt;Internship Panel&lt;/font&gt;" style="text;html=1;align=center;verticalAlign=middle;whiteSpace=wrap;rounded=0;" vertex="1" parent="1">
          <mxGeometry x="5963" y="1600" width="480" height="110" as="geometry" />
        </mxCell>
        <mxCell id="PTo7LQ85H9sYXjNCi2T0-301" value="&lt;font style=&quot;font-size: 25px;&quot;&gt;Application Panel&lt;/font&gt;" style="text;html=1;align=center;verticalAlign=middle;whiteSpace=wrap;rounded=0;" vertex="1" parent="1">
          <mxGeometry x="8525" y="1610" width="480" height="110" as="geometry" />
        </mxCell>
        <mxCell id="PTo7LQ85H9sYXjNCi2T0-302" value="" style="shape=ext;double=1;rounded=0;whiteSpace=wrap;html=1;" vertex="1" parent="1">
          <mxGeometry x="-1490" y="2040" width="1990" height="1280" as="geometry" />
        </mxCell>
        <mxCell id="PTo7LQ85H9sYXjNCi2T0-303" value="" style="shape=ext;double=1;rounded=0;whiteSpace=wrap;html=1;" vertex="1" parent="1">
          <mxGeometry x="-1490" y="2015" width="1990" height="120" as="geometry" />
        </mxCell>
        <mxCell id="PTo7LQ85H9sYXjNCi2T0-304" value="" style="ellipse;shape=doubleEllipse;whiteSpace=wrap;html=1;aspect=fixed;" vertex="1" parent="1">
          <mxGeometry x="-1443" y="2040" width="80" height="80" as="geometry" />
        </mxCell>
        <mxCell id="PTo7LQ85H9sYXjNCi2T0-305" value="" style="rounded=1;whiteSpace=wrap;html=1;" vertex="1" parent="1">
          <mxGeometry x="20" y="2045" width="70" height="45" as="geometry" />
        </mxCell>
        <mxCell id="PTo7LQ85H9sYXjNCi2T0-306" value="" style="rounded=1;whiteSpace=wrap;html=1;" vertex="1" parent="1">
          <mxGeometry x="180" y="2045" width="60" height="45" as="geometry" />
        </mxCell>
        <mxCell id="PTo7LQ85H9sYXjNCi2T0-307" value="" style="whiteSpace=wrap;html=1;aspect=fixed;verticalLabelPosition=bottom;shadow=0;dashed=0;verticalAlign=top;strokeWidth=1;shape=mxgraph.mockup.containers.userMale;strokeColor=#666666;strokeColor2=#008cff;" vertex="1" parent="1">
          <mxGeometry x="380" y="2040" width="80" height="80" as="geometry" />
        </mxCell>
        <mxCell id="PTo7LQ85H9sYXjNCi2T0-308" value="" style="rounded=0;whiteSpace=wrap;html=1;" vertex="1" parent="1">
          <mxGeometry x="-1490" y="2135" width="270" height="1185" as="geometry" />
        </mxCell>
        <mxCell id="PTo7LQ85H9sYXjNCi2T0-309" value="&#xa;&lt;span style=&quot;color: rgb(0, 0, 0); font-family: Helvetica; font-size: 25px; font-style: normal; font-variant-ligatures: normal; font-variant-caps: normal; font-weight: 400; letter-spacing: normal; orphans: 2; text-align: center; text-indent: 0px; text-transform: none; widows: 2; word-spacing: 0px; -webkit-text-stroke-width: 0px; white-space: normal; background-color: rgb(251, 251, 251); text-decoration-thickness: initial; text-decoration-style: initial; text-decoration-color: initial; display: inline !important; float: none;&quot;&gt;Profile&lt;/span&gt;&#xa;&#xa;" style="text;html=1;align=center;verticalAlign=middle;whiteSpace=wrap;rounded=0;" vertex="1" parent="1">
          <mxGeometry x="-1435" y="2210" width="160" height="50" as="geometry" />
        </mxCell>
        <mxCell id="PTo7LQ85H9sYXjNCi2T0-310" value="&lt;font style=&quot;font-size: 25px;&quot;&gt;Internship&lt;/font&gt;" style="text;html=1;align=center;verticalAlign=middle;whiteSpace=wrap;rounded=0;" vertex="1" parent="1">
          <mxGeometry x="-1420" y="2310" width="130" height="50" as="geometry" />
        </mxCell>
        <mxCell id="PTo7LQ85H9sYXjNCi2T0-311" value="&lt;font style=&quot;font-size: 25px;&quot;&gt;My Application&lt;/font&gt;" style="text;html=1;align=center;verticalAlign=middle;whiteSpace=wrap;rounded=0;" vertex="1" parent="1">
          <mxGeometry x="-1435" y="2410" width="175" height="50" as="geometry" />
        </mxCell>
        <mxCell id="PTo7LQ85H9sYXjNCi2T0-379" value="" style="rounded=0;whiteSpace=wrap;html=1;" vertex="1" parent="1">
          <mxGeometry x="-1150" y="2348.5" width="410" height="639" as="geometry" />
        </mxCell>
        <mxCell id="PTo7LQ85H9sYXjNCi2T0-380" value="" style="rounded=0;whiteSpace=wrap;html=1;" vertex="1" parent="1">
          <mxGeometry x="-580" y="2348.5" width="410" height="639" as="geometry" />
        </mxCell>
        <mxCell id="PTo7LQ85H9sYXjNCi2T0-383" value="" style="rounded=0;whiteSpace=wrap;html=1;" vertex="1" parent="1">
          <mxGeometry x="-20" y="2348.5" width="410" height="639" as="geometry" />
        </mxCell>
        <mxCell id="PTo7LQ85H9sYXjNCi2T0-372" value="&lt;font style=&quot;font-size: 25px;&quot;&gt;No. of Students&lt;/font&gt;" style="text;html=1;align=center;verticalAlign=middle;whiteSpace=wrap;rounded=0;" vertex="1" parent="1">
          <mxGeometry x="-1075" y="2395" width="260" height="30" as="geometry" />
        </mxCell>
        <mxCell id="PTo7LQ85H9sYXjNCi2T0-373" value="&lt;font style=&quot;font-size: 25px;&quot;&gt;Internships&lt;/font&gt;" style="text;html=1;align=center;verticalAlign=middle;whiteSpace=wrap;rounded=0;" vertex="1" parent="1">
          <mxGeometry x="-505" y="2405" width="260" height="30" as="geometry" />
        </mxCell>
        <mxCell id="PTo7LQ85H9sYXjNCi2T0-374" value="&lt;font style=&quot;font-size: 25px;&quot;&gt;Company&lt;/font&gt;" style="text;html=1;align=center;verticalAlign=middle;whiteSpace=wrap;rounded=0;" vertex="1" parent="1">
          <mxGeometry x="55" y="2410" width="260" height="30" as="geometry" />
        </mxCell>
        <mxCell id="PTo7LQ85H9sYXjNCi2T0-384" value="&lt;font style=&quot;font-size: 25px;&quot;&gt;Admin View&lt;/font&gt;" style="rounded=0;whiteSpace=wrap;html=1;" vertex="1" parent="1">
          <mxGeometry x="-1490" y="1830" width="760" height="110" as="geometry" />
        </mxCell>
        <mxCell id="PTo7LQ85H9sYXjNCi2T0-385" value="&lt;font style=&quot;font-size: 25px;&quot;&gt;Dashboard&lt;/font&gt;" style="text;html=1;align=center;verticalAlign=middle;whiteSpace=wrap;rounded=0;" vertex="1" parent="1">
          <mxGeometry x="-653" y="3360" width="480" height="110" as="geometry" />
        </mxCell>
        <mxCell id="PTo7LQ85H9sYXjNCi2T0-386" value="&lt;font style=&quot;font-size: 25px;&quot;&gt;Studets Table Panel&lt;/font&gt;" style="text;html=1;align=center;verticalAlign=middle;whiteSpace=wrap;rounded=0;" vertex="1" parent="1">
          <mxGeometry x="1570" y="3360" width="480" height="110" as="geometry" />
        </mxCell>
        <mxCell id="PTo7LQ85H9sYXjNCi2T0-387" value="&lt;font style=&quot;font-size: 25px;&quot;&gt;Companies Table Panel&lt;/font&gt;" style="text;html=1;align=center;verticalAlign=middle;whiteSpace=wrap;rounded=0;" vertex="1" parent="1">
          <mxGeometry x="3890" y="3360" width="480" height="110" as="geometry" />
        </mxCell>
        <mxCell id="PTo7LQ85H9sYXjNCi2T0-388" value="&lt;font style=&quot;font-size: 25px;&quot;&gt;Internship Table Panel&lt;/font&gt;" style="text;html=1;align=center;verticalAlign=middle;whiteSpace=wrap;rounded=0;" vertex="1" parent="1">
          <mxGeometry x="6080" y="3360" width="480" height="110" as="geometry" />
        </mxCell>
        <mxCell id="PTo7LQ85H9sYXjNCi2T0-389" value="&lt;font style=&quot;font-size: 25px;&quot;&gt;Application Table Panel&lt;/font&gt;" style="text;html=1;align=center;verticalAlign=middle;whiteSpace=wrap;rounded=0;" vertex="1" parent="1">
          <mxGeometry x="8640" y="3360" width="480" height="110" as="geometry" />
        </mxCell>
      </root>
    </mxGraphModel>
  </diagram>
</mxfile>
